<?xml version="1.0" encoding="utf-8"?>
<!-- Generator: Adobe Illustrator 17.1.0, SVG Export Plug-In . SVG Version: 6.00 Build 0)  -->
<!DOCTYPE svg PUBLIC "-//W3C//DTD SVG 1.1//EN" "http://www.w3.org/Graphics/SVG/1.1/DTD/svg11.dtd">
<svg version="1.1" id="postcard" xmlns="http://www.w3.org/2000/svg" xmlns:xlink="http://www.w3.org/1999/xlink" x="0px" y="0px"
	 viewBox="0 0 54.4218 49.2246" enable-background="new 0 0 54.4218 49.2246" xml:space="preserve">
<g>
	<g>
		<polyline fill="#ECE9E6" points="50.7568,12.0708 47.8505,1.2246 7.372,12.0708 		"/>
		<polygon fill="#43525B" points="7.6308,13.0366 7.1132,11.105 48.5576,0 51.7226,11.812 49.791,12.3296 47.1435,2.4492 
			7.6308,13.0366 		"/>
	</g>
	<g>
		<rect x="1" y="12.0708" fill="#FFFFFF" width="52.4218" height="36.1538"/>
		<path fill="#43525B" d="M54.4218,49.2246H0V11.0708h54.4218V49.2246L54.4218,49.2246z M2,47.2246h50.4218V13.0708H2V47.2246
			L2,47.2246z"/>
	</g>
	<g>
		<polygon fill="#43525B" points="48.9033,39.2832 36.249,39.2832 36.249,37.2832 48.9033,37.2832 48.9033,39.2832 		"/>
	</g>
	<g>
		<g>
			<path fill="#43525B" d="M3.7109,44.7051H1c-0.5528,0-1-0.4478-1-1c0-0.5523,0.4472-1,1-1h2.7109c0.5527,0,1,0.4477,1,1
				C4.7109,44.2573,4.2636,44.7051,3.7109,44.7051L3.7109,44.7051z"/>
		</g>
		<g>
			<path fill="#43525B" d="M3.7109,40.1865H1c-0.5528,0-1-0.4477-1-1c0-0.5522,0.4472-1,1-1h2.7109c0.5527,0,1,0.4478,1,1
				C4.7109,39.7388,4.2636,40.1865,3.7109,40.1865L3.7109,40.1865z"/>
		</g>
		<g>
			<path fill="#43525B" d="M3.7109,35.666H1c-0.5528,0-1-0.4477-1-1c0-0.5522,0.4472-1,1-1h2.7109c0.5527,0,1,0.4478,1,1
				C4.7109,35.2183,4.2636,35.666,3.7109,35.666L3.7109,35.666z"/>
		</g>
		<g>
			<path fill="#43525B" d="M3.7109,31.1475H1c-0.5528,0-1-0.4478-1-1c0-0.5523,0.4472-1,1-1h2.7109c0.5527,0,1,0.4477,1,1
				C4.7109,30.6997,4.2636,31.1475,3.7109,31.1475L3.7109,31.1475z"/>
		</g>
		<g>
			<path fill="#43525B" d="M3.7109,26.6284H1c-0.5528,0-1-0.4477-1-1c0-0.5522,0.4472-1,1-1h2.7109c0.5527,0,1,0.4478,1,1
				C4.7109,26.1807,4.2636,26.6284,3.7109,26.6284L3.7109,26.6284z"/>
		</g>
		<g>
			<path fill="#43525B" d="M3.7109,22.1094H1c-0.5528,0-1-0.4478-1-1c0-0.5523,0.4472-1,1-1h2.7109c0.5527,0,1,0.4477,1,1
				C4.7109,21.6616,4.2636,22.1094,3.7109,22.1094L3.7109,22.1094z"/>
		</g>
		<g>
			<path fill="#43525B" d="M3.7109,17.5898H1c-0.5528,0-1-0.4477-1-1c0-0.5522,0.4472-1,1-1h2.7109c0.5527,0,1,0.4478,1,1
				C4.7109,17.1421,4.2636,17.5898,3.7109,17.5898L3.7109,17.5898z"/>
		</g>
	</g>
	<g>
		<polygon fill="#43525B" points="28.2109,42.8017 26.2109,42.8017 26.2109,17.4936 28.2109,17.4936 28.2109,42.8017 		"/>
	</g>
	<g>
		<polygon fill="#43525B" points="48.9033,35.666 38.0566,35.666 38.0566,33.666 48.9033,33.666 48.9033,35.666 		"/>
	</g>
	<g>
		<rect x="41.6728" y="18.3979" fill="#C0DFCF" width="7.2305" height="7.2305"/>
		<path fill="#43525B" d="M49.9033,26.6284h-9.2305v-9.2305h9.2305V26.6284L49.9033,26.6284z M42.6728,24.6284h5.2305v-5.2305
			h-5.2305V24.6284L42.6728,24.6284z"/>
	</g>
	<g>
		<g>
			<path fill="#FFA8A6" d="M16.0039,23.4004c-0.4405-1.001-1.4375-1.7031-2.6026-1.7031c-1.5634,0-2.6924,1.2973-2.8369,2.8374
				c0,0-0.0742,0.3828,0.0928,1.0732c0.2314,0.939,0.7715,1.771,1.4951,2.4097l3.8516,3.3183l3.7861-3.3183
				c0.7266-0.6387,1.2647-1.4707,1.4941-2.4097c0.169-0.6904,0.0948-1.0732,0.0948-1.0732
				c-0.1446-1.5401-1.2715-2.8374-2.8389-2.8374C17.3759,21.6973,16.4423,22.3994,16.0039,23.4004z"/>
			<path fill="#43525B" d="M16.0039,32.3359c-0.2325,0-0.4649-0.0805-0.6524-0.2422L11.5,28.7754
				c-0.9161-0.8086-1.5401-1.8184-1.8135-2.9282c-0.2041-0.8414-0.1309-1.3628-0.1035-1.503
				c0.1865-2.0376,1.834-3.6469,3.8183-3.6469c0.9776,0,1.8955,0.372,2.5909,1.0083c0.6806-0.6416,1.5761-1.0083,2.5478-1.0083
				c1.9854,0,3.6338,1.6093,3.835,3.7441c0.0127,0.043,0.0859,0.5659-0.1192,1.4043c-0.2724,1.1133-0.8965,2.124-1.8056,2.9228
				l-3.7872,3.3194C16.4746,32.2534,16.2392,32.3359,16.0039,32.3359L16.0039,32.3359z M13.4013,22.6973
				c-1.0898,0-1.7509,0.9711-1.8408,1.9306c-0.0088,0.0669-0.0371,0.3081,0.0684,0.7451c0.1748,0.7085,0.5849,1.3653,1.1855,1.8951
				l3.1836,2.7431l3.1328-2.7456c0.5987-0.5264,1.0078-1.1816,1.1817-1.895c0.1064-0.436,0.0791-0.6763,0.0791-0.6787
				c-0.0987-1.0235-0.7608-1.9946-1.8516-1.9946c-0.7119,0-1.3174,0.413-1.6201,1.1044c-0.1592,0.3633-0.5186,0.5982-0.9151,0.5987
				h-0.0009c-0.3965,0-0.7559-0.2344-0.9151-0.5972C14.7929,23.1313,14.1308,22.6973,13.4013,22.6973L13.4013,22.6973z"/>
		</g>
	</g>
	<g>
		<g>
			<g>
				<path fill="#43525B" d="M10.2558,41.2402c-0.2558,0-0.5117-0.0976-0.707-0.2929c-0.3906-0.3907-0.3906-1.024,0-1.4141
					l4.208-4.207c0.3906-0.3907,1.0234-0.3907,1.4141,0c0.3906,0.3906,0.3906,1.0239,0,1.414l-4.208,4.2071
					C10.7675,41.1426,10.5117,41.2402,10.2558,41.2402L10.2558,41.2402z"/>
			</g>
			<g>
				<path fill="#43525B" d="M14.4638,41.2402c-0.2558,0-0.5117-0.0976-0.707-0.2929l-4.208-4.2071
					c-0.3906-0.3901-0.3906-1.0234,0-1.414c0.3906-0.3907,1.0234-0.3907,1.4141,0l4.208,4.207c0.3906,0.3901,0.3906,1.0234,0,1.4141
					C14.9755,41.1426,14.7197,41.2402,14.4638,41.2402L14.4638,41.2402z"/>
			</g>
		</g>
		<g>
			<g>
				<path fill="#43525B" d="M17.2685,41.2402c-0.2558,0-0.5117-0.0976-0.707-0.2929c-0.3906-0.3907-0.3906-1.024,0-1.4141
					l4.208-4.207c0.3906-0.3907,1.0234-0.3907,1.4141,0c0.3906,0.3906,0.3906,1.0239,0,1.414l-4.2081,4.2071
					C17.7802,41.1426,17.5244,41.2402,17.2685,41.2402L17.2685,41.2402z"/>
			</g>
			<g>
				<path fill="#43525B" d="M21.4765,41.2402c-0.2558,0-0.5117-0.0976-0.707-0.2929l-4.208-4.2071
					c-0.3906-0.3901-0.3906-1.0234,0-1.414c0.3906-0.3907,1.0234-0.3907,1.414,0l4.2081,4.207c0.3906,0.3901,0.3906,1.0234,0,1.4141
					C21.9882,41.1426,21.7324,41.2402,21.4765,41.2402L21.4765,41.2402z"/>
			</g>
		</g>
	</g>
</g>
</svg>
