<?xml version="1.0" ?><!DOCTYPE svg  PUBLIC '-//W3C//DTD SVG 1.1//EN'  'http://www.w3.org/Graphics/SVG/1.1/DTD/svg11.dtd'><svg enable-background="new 0 0 91 91" height="91px" id="Layer_1" version="1.1" viewBox="0 0 91 91" width="91px" xml:space="preserve" xmlns="http://www.w3.org/2000/svg" xmlns:xlink="http://www.w3.org/1999/xlink"><g><path d="M73.415,10.764c-6.072-3.076-10.281-4.271-13.078-2.172c-2.799,2.102-13.994,24.432-13.994,24.432   S37.685,11.307,33.948,8.049s-16.814,6.879-19.596,10.496c-2.787,3.621,0,4.277,0,4.277l25.783,10.719l-26.078,0.49l-2.982,50.604   l72.66,0.58l-2.502-52.449l-25.805,0.486c9.145-3.291,24.875-9.004,27.881-10.418C87.599,20.82,79.485,13.84,73.415,10.764z    M38.142,81.188l-22.129,0.172l0.73-19.072h23.016L38.142,81.188z M40.269,56.324H16.974l0.715-18.602l24.17,0.002L40.269,56.324z    M22.901,23.082c-1.99-1.031-6.43-2.328-5.514-3.197c0.922-0.871,8.117-7.33,10.262-8.451c2.143-1.119,4.596-0.744,5.666,0.871   c1.072,1.617,10.107,18.941,10.107,18.941S24.892,24.109,22.901,23.082z M78.485,80.871L55.37,81.053l-2.549-18.766h25.973   L78.485,80.871z M79.2,37.73l-0.309,18.594H52.011l-2.521-18.598L79.2,37.73z M79.265,19.375   c-2.113,1.885-29.438,12.922-29.438,12.922s11.445-21.533,14.012-21.352C66.409,11.125,81.376,17.496,79.265,19.375z"/></g></svg>