<svg width="28" height="20" viewBox="0 0 28 20" fill="none" xmlns="http://www.w3.org/2000/svg">
	<path fill-rule="evenodd" clip-rule="evenodd"
		d="M28 14.9078V9.94815H23.7908C20.2169 9.94815 19.5815 9.92715 19.5815 9.80928C19.5815 9.73294 19.6346 9.33082 19.6996 8.91567C19.9919 7.04579 21.2013 5.19117 22.857 4.07341C24.1552 3.19701 25.4349 2.72721 27.0151 2.547L28 2.43459V1.23173V0.0288696L27.3713 0.0301342C27.0256 0.0308151 26.2999 0.113184 25.7587 0.213057C23.5675 0.617413 21.7649 1.48224 20.1734 2.89253C18.6414 4.2503 17.7403 5.6214 17.1454 7.49994C16.9172 8.22054 16.9078 8.44703 16.8738 14.0569L16.8386 19.8674H22.4193H28V14.9078ZM11.163 14.9078V9.94815H6.99281H2.8226L2.88131 9.18621C2.9503 8.29192 3.41911 6.99415 3.96194 6.19536C5.38368 4.10297 7.74632 2.76552 10.4797 2.50587L11.163 2.44101V1.22054V8.39233e-05L10.2064 0.0579453C8.85931 0.139441 7.69155 0.434004 6.29779 1.04404C3.30978 2.35163 1.25621 4.58639 0.360247 7.50538L0.0731411 8.44081L0.0365162 14.1541L0 19.8674H5.58146H11.163V14.9078ZM19.5815 14.9564V12.4766H22.3695H25.1574V14.9564V17.4362H22.3695H19.5815V14.9564ZM2.85387 14.9564V12.4766H5.64181H8.42975V14.9564V17.4362H5.64181H2.85387V14.9564Z"
		fill="#F37825" />
</svg>