<svg xmlns="http://www.w3.org/2000/svg" viewBox="0 0 175.000000 100.000000"
	preserveAspectRatio="xMidYMid meet">
	<g transform="translate(0.000000,100.000000) scale(0.100000,-0.100000)"
		fill="#000000" stroke="none">
		<path
			d="M431 779 c-6 -17 -8 -35 -5 -40 9 -16 33 -10 44 11 10 19 21 20 370
20 198 0 360 -4 360 -8 0 -9 -77 -280 -107 -377 l-19 -60 -200 -3 -201 -2 -11
25 c-15 32 -68 65 -105 65 -38 0 -80 -26 -101 -61 -14 -24 -24 -29 -57 -29
-38 0 -39 1 -33 28 4 15 13 45 21 66 14 42 6 63 -20 53 -15 -6 -69 -165 -61
-179 3 -4 33 -8 68 -8 61 0 63 -1 79 -35 21 -44 58 -68 106 -68 47 0 85 24
106 69 l16 34 307 0 307 0 15 -32 c45 -95 165 -95 210 0 14 29 19 32 67 32
l51 0 21 69 c34 111 34 110 -32 149 -51 31 -64 46 -118 138 l-61 104 -100 0
-100 0 4 33 3 32 -406 3 -407 2 -11 -31z m1048 -182 c49 -85 64 -103 108 -128
l51 -29 -17 -58 c-16 -55 -19 -57 -53 -60 -32 -3 -39 1 -53 27 -40 79 -160 79
-200 1 -15 -30 -16 -30 -101 -30 -77 0 -85 2 -80 18 3 9 23 82 45 162 22 80
44 158 50 173 l11 28 91 -3 91 -3 57 -98z m-869 -259 c11 -12 20 -32 20 -45 0
-31 -42 -73 -73 -73 -55 0 -89 80 -50 122 23 25 77 24 103 -4z m859 -4 c27
-35 26 -59 -4 -89 -63 -63 -160 18 -105 88 29 37 80 37 109 1z" />
		<path
			d="M61 696 c-27 -32 9 -36 300 -34 276 3 284 4 284 23 0 19 -8 20 -286
23 -234 2 -288 0 -298 -12z" />
		<path
			d="M291 617 c-26 -32 10 -37 235 -35 211 3 219 4 219 23 0 19 -8 20
-221 23 -179 2 -223 0 -233 -11z" />
		<path d="M167 526 c-12 -31 16 -36 203 -36 187 0 215 5 203 36 -8 21 -398 21
-406 0z" />
	</g>
</svg>