<?xml version="1.0" standalone="no"?>
<!DOCTYPE svg PUBLIC "-//W3C//DTD SVG 20010904//EN"
 "http://www.w3.org/TR/2001/REC-SVG-20010904/DTD/svg10.dtd">
<svg version="1.0" xmlns="http://www.w3.org/2000/svg"
 width="810.000000pt" height="810.000000pt" viewBox="0 0 810.000000 810.000000"
 preserveAspectRatio="xMidYMid meet">
<metadata>
Created by potrace 1.14, written by Peter Selinger 2001-2017
</metadata>
<g transform="translate(0.000000,810.000000) scale(0.100000,-0.100000)"
fill="#000000" stroke="none">
<path d="M4650 6802 c-8 -3 -21 -13 -28 -24 -7 -10 -22 -18 -33 -18 -10 0 -19
-4 -19 -10 0 -5 -13 -10 -30 -10 -16 0 -30 -4 -30 -10 0 -5 -8 -10 -18 -10
-10 0 -24 -9 -32 -20 -8 -11 -22 -20 -32 -20 -10 0 -18 -4 -18 -10 0 -5 -9
-10 -20 -10 -11 0 -20 -4 -20 -10 0 -17 -4 -23 -30 -51 -14 -14 -28 -24 -33
-22 -4 2 -23 -12 -43 -32 -21 -22 -41 -34 -50 -31 -10 4 -14 -2 -14 -19 0 -14
-4 -25 -10 -25 -5 0 -10 -8 -10 -18 0 -10 -9 -24 -20 -32 -11 -8 -20 -22 -20
-32 0 -10 -7 -18 -16 -18 -8 0 -13 -4 -10 -9 4 -5 1 -11 -4 -13 -6 -2 -12 -11
-13 -20 -2 -9 -9 -23 -16 -32 -7 -9 -10 -16 -6 -16 4 0 -4 -11 -18 -24 -14
-13 -23 -27 -19 -30 3 -4 -5 -17 -19 -29 -20 -17 -25 -31 -25 -59 1 -31 -2
-38 -17 -38 -23 0 -47 -23 -47 -44 0 -9 -4 -16 -10 -16 -5 0 -10 -7 -10 -17 0
-9 -3 -14 -6 -10 -8 7 -54 -38 -54 -53 0 -6 -4 -8 -10 -5 -5 3 -10 -1 -10 -10
0 -9 -4 -13 -10 -10 -6 4 -10 -5 -10 -19 0 -25 2 -26 60 -24 36 1 61 7 64 14
3 7 14 10 26 7 14 -4 27 2 41 18 11 13 28 24 37 24 9 0 16 6 14 13 -1 8 2 11
7 8 5 -4 14 1 19 10 5 9 12 15 15 15 21 -3 27 1 27 18 0 11 6 22 13 24 9 4 8
8 -3 16 -12 8 -11 13 8 29 12 11 22 26 22 35 0 8 6 18 13 21 10 5 10 7 0 12
-15 7 -17 44 -3 44 6 0 10 6 10 14 0 15 44 14 63 -2 7 -6 46 -10 87 -10 46 0
76 -4 78 -11 2 -6 12 -11 23 -11 10 0 19 -4 19 -10 0 -5 7 -10 15 -10 25 0 85
-66 85 -94 0 -13 4 -26 9 -28 15 -5 17 -141 3 -146 -7 -2 -12 -11 -12 -21 0
-9 -9 -23 -20 -31 -15 -11 -20 -26 -20 -62 0 -26 -4 -48 -9 -48 -5 0 -11 -10
-13 -22 -2 -12 -18 -30 -37 -40 -27 -16 -36 -17 -49 -6 -8 7 -17 12 -19 10
-13 -10 -35 20 -37 50 -2 51 -20 68 -73 68 -46 0 -73 16 -73 44 0 25 -56 21
-63 -4 -6 -22 23 -60 44 -60 8 0 21 -9 29 -20 8 -11 21 -20 29 -20 19 0 51
-39 45 -55 -10 -26 28 -52 75 -50 27 0 45 -4 48 -12 7 -18 40 -16 47 2 3 8 9
14 13 14 16 -4 43 13 43 26 0 8 8 12 20 10 18 -4 20 2 20 61 0 51 3 64 16 64
8 0 13 4 10 9 -4 5 -1 11 4 13 6 2 12 19 13 38 1 19 6 38 11 42 5 3 10 44 11
90 1 76 0 85 -22 104 -13 12 -22 26 -21 31 2 6 -12 24 -29 40 -18 17 -33 36
-33 43 0 6 -4 9 -9 6 -5 -4 -11 -2 -13 3 -1 5 -10 11 -18 13 -8 2 -21 9 -28
16 -8 7 -17 10 -22 7 -5 -3 -10 0 -12 7 -6 18 -238 19 -245 1 -3 -7 -9 -10
-14 -7 -5 3 -9 -4 -9 -15 0 -11 -4 -23 -10 -26 -5 -3 -10 -15 -10 -26 0 -11
-7 -19 -17 -19 -16 -1 -16 -2 -3 -13 24 -19 22 -38 -6 -62 -21 -18 -23 -23
-10 -28 9 -4 16 -11 16 -17 0 -6 -5 -8 -10 -5 -6 3 -13 -1 -16 -9 -4 -11 -14
-14 -30 -10 -15 4 -24 2 -24 -5 0 -6 -6 -11 -13 -11 -8 0 -20 -11 -27 -25 -13
-24 -14 -24 -30 -8 -14 15 -14 21 -2 45 7 16 18 28 23 28 6 0 8 4 4 9 -3 5 5
11 17 13 13 2 23 10 23 18 0 8 6 19 13 23 7 5 10 12 7 18 -4 5 1 12 9 15 9 3
13 10 10 15 -3 5 2 9 12 9 11 0 15 6 11 20 -3 10 1 27 9 37 7 10 14 26 14 36
0 10 5 15 10 12 6 -3 10 1 10 10 0 9 5 13 10 10 6 -4 10 5 10 19 0 14 5 26 10
26 6 0 10 9 10 20 0 11 5 20 10 20 6 0 10 7 10 15 0 9 37 52 83 97 45 45 81
85 80 89 -1 4 5 6 15 4 9 -1 20 2 23 7 3 5 13 10 22 12 9 1 25 12 36 25 11 13
25 20 31 16 5 -3 13 1 16 10 4 9 13 14 21 11 7 -3 16 1 19 9 4 8 14 15 24 15
9 0 25 9 35 20 10 11 27 20 37 20 11 0 16 5 13 10 -6 9 16 15 39 11 5 -1 6 9
4 23 -4 18 0 26 11 28 13 3 12 5 -4 9 -11 3 -27 4 -35 1z"/>
<path d="M3413 5653 c-3 -7 -9 -11 -13 -8 -5 3 -15 -2 -24 -10 -8 -8 -21 -14
-28 -13 -7 2 -14 -7 -16 -19 -2 -13 -8 -23 -13 -23 -5 0 -9 -9 -9 -20 0 -11
-4 -20 -10 -20 -6 0 -10 -36 -10 -87 0 -47 3 -84 6 -80 9 8 34 -18 34 -35 0
-8 10 -24 23 -35 12 -11 29 -29 38 -39 9 -10 32 -33 51 -50 19 -17 34 -38 32
-47 -1 -9 4 -17 12 -17 9 0 12 -4 9 -10 -3 -5 1 -10 9 -10 9 0 16 -4 16 -10 0
-5 6 -10 13 -10 22 0 47 -34 47 -64 0 -16 -4 -25 -10 -21 -5 3 -10 -1 -10 -9
0 -9 5 -16 10 -16 6 0 10 -26 10 -58 0 -46 4 -60 20 -72 19 -14 20 -26 20
-223 0 -136 -3 -206 -10 -202 -6 4 -10 -15 -10 -49 0 -31 -4 -56 -10 -56 -6 0
-10 -62 -10 -165 0 -103 4 -165 10 -165 6 0 10 -20 10 -44 0 -27 6 -48 16 -57
10 -8 13 -21 9 -38 -4 -20 -3 -22 5 -11 7 11 10 2 10 -35 0 -47 4 -54 45 -95
24 -24 42 -46 40 -50 -2 -4 11 -22 30 -40 19 -19 35 -42 35 -53 0 -10 5 -15
10 -12 6 3 10 -1 10 -10 0 -9 5 -13 10 -10 6 4 25 -9 43 -27 32 -34 39 -38 57
-38 6 0 10 -36 10 -89 0 -55 4 -91 11 -93 7 -2 11 -57 11 -164 -1 -147 1 -162
19 -174 22 -16 25 -50 7 -69 -8 -8 -8 -11 -2 -8 7 4 14 -6 18 -25 6 -32 70
-118 87 -118 11 0 39 25 39 34 0 3 -7 6 -15 6 -8 0 -15 8 -15 18 0 9 -9 30
-19 46 -11 16 -17 35 -14 42 3 8 -2 17 -11 20 -9 3 -14 10 -11 14 3 5 -1 14
-8 22 -10 9 -13 40 -12 106 1 51 -2 95 -6 98 -4 2 -6 11 -2 19 3 9 -1 23 -8
32 -10 12 -10 15 -1 9 6 -4 12 -3 12 3 0 5 -5 13 -11 16 -6 5 -4 12 8 21 12
10 13 12 3 9 -18 -6 -23 35 -6 47 7 5 5 8 -4 8 -10 0 -11 3 -3 8 6 4 13 16 15
27 1 11 8 23 13 27 6 5 6 8 -1 8 -7 0 -11 16 -10 40 2 30 -2 40 -13 40 -13 1
-12 4 3 15 11 8 16 15 10 15 -5 0 -2 4 6 10 8 5 14 21 15 37 0 34 21 37 52 8
12 -11 28 -20 35 -20 7 0 14 -10 16 -22 3 -21 13 -28 35 -24 4 0 7 -4 7 -10 0
-5 4 -8 9 -5 4 3 21 -6 37 -19 31 -26 61 -34 48 -12 -5 7 0 6 11 -3 11 -9 16
-10 11 -2 -4 7 -2 12 7 12 8 0 17 6 20 14 4 9 14 12 28 9 14 -4 20 -2 16 4 -4
6 0 13 8 17 8 3 15 15 15 26 0 11 5 20 10 20 6 0 10 14 10 30 0 17 5 30 10 30
6 0 10 30 10 70 0 63 2 70 20 70 11 0 20 -4 20 -10 0 -5 9 -10 20 -10 11 0 20
5 20 10 0 6 7 10 16 10 18 0 44 23 44 39 0 6 7 8 15 5 9 -4 25 4 39 19 13 14
27 23 30 19 4 -3 4 1 0 11 -3 9 -10 17 -14 17 -12 0 -5 31 9 39 7 4 11 13 9
18 -2 6 6 19 17 29 24 23 30 50 13 57 -9 3 -13 21 -12 51 1 25 -2 46 -6 46 -4
0 -11 11 -14 25 -4 14 -11 25 -16 25 -5 0 -2 9 7 20 18 20 39 28 28 10 -6 -10
-3 -11 35 -14 12 0 24 -6 28 -11 9 -13 332 -14 332 -2 0 13 27 37 34 30 3 -4
6 -1 6 6 0 16 25 41 40 41 6 0 8 5 5 10 -3 6 -1 10 4 10 14 0 14 97 1 105 -5
3 -10 15 -10 26 0 11 -4 17 -10 14 -6 -4 -10 8 -10 29 0 20 -4 36 -10 36 -5 0
-10 6 -10 14 0 19 -66 86 -85 86 -8 0 -15 5 -15 10 0 6 -9 10 -20 10 -11 0
-20 5 -20 10 0 6 -7 10 -16 10 -8 0 -12 5 -9 10 4 6 -8 10 -29 10 -20 0 -36 5
-36 10 0 6 -9 10 -20 10 -13 0 -20 7 -20 20 0 16 7 20 30 20 17 0 30 -4 30
-10 0 -5 9 -10 19 -10 11 0 23 -4 26 -10 3 -5 15 -10 26 -10 10 0 19 -4 19
-10 0 -5 9 -10 20 -10 11 0 20 -4 20 -10 0 -5 9 -10 20 -10 11 0 20 -4 20 -10
0 -5 23 -10 50 -10 l50 0 0 56 c0 34 -4 53 -10 49 -5 -3 -10 1 -10 10 0 9 -4
13 -10 10 -6 -4 -10 8 -10 29 0 20 -3 35 -7 35 -24 -4 -33 4 -33 30 l0 29 88
-3 c48 -1 95 -5 105 -10 32 -14 191 -12 205 2 8 7 18 10 24 7 6 -4 8 -2 4 4
-3 6 -2 13 4 17 6 4 8 10 6 14 -3 4 4 14 15 21 10 8 19 22 19 32 0 14 8 18 35
18 19 0 35 -4 35 -10 0 -5 9 -10 20 -10 11 0 20 -4 20 -10 0 -5 9 -10 19 -10
11 0 21 -5 23 -12 3 -9 136 -12 234 -5 7 0 7 7 0 23 -6 12 -14 20 -18 18 -5
-3 -8 0 -8 5 0 7 -38 11 -105 11 -63 0 -105 4 -105 10 0 6 -9 10 -20 10 -11 0
-20 5 -20 10 0 6 -9 10 -19 10 -11 0 -21 5 -23 11 -2 6 -23 12 -47 13 -43 2
-73 -14 -79 -44 -2 -8 -8 -18 -13 -21 -6 -3 -9 -10 -8 -15 6 -32 -3 -44 -31
-44 -16 0 -30 -4 -30 -9 0 -15 -61 -19 -75 -4 -10 9 -43 13 -114 13 -61 0
-101 4 -101 10 0 6 -9 10 -20 10 -11 0 -20 -5 -20 -11 0 -6 -21 -9 -52 -7 -44
2 -52 6 -50 21 2 10 -3 17 -13 17 -9 0 -13 5 -10 10 3 6 -1 10 -10 10 -9 0
-13 5 -10 10 3 6 -2 10 -13 10 -10 0 -29 11 -42 25 -12 13 -27 22 -32 19 -4
-3 -10 1 -13 8 -4 9 -19 13 -44 11 -25 -1 -41 3 -44 11 -4 9 -22 13 -57 11
-28 -1 -57 3 -63 9 -8 8 -93 11 -284 11 -209 0 -274 3 -277 12 -3 8 -18 11
-36 9 -17 -2 -36 2 -43 8 -17 17 -83 17 -115 0 -23 -12 -28 -11 -35 1 -5 9
-18 13 -33 11 -16 -3 -24 0 -24 9 0 10 -9 14 -30 11 -19 -2 -30 1 -30 9 0 7
-17 12 -42 13 -24 1 -44 7 -46 12 -2 6 -17 10 -33 10 -16 0 -29 5 -29 10 0 6
-7 10 -15 10 -17 0 -83 62 -87 82 -4 19 -59 69 -69 63 -5 -3 -11 6 -15 20 -3
14 -10 25 -15 25 -5 0 -9 9 -9 20 0 11 -5 20 -11 20 -6 0 -8 7 -5 15 3 9 -1
18 -9 21 -22 9 -19 73 3 93 10 9 21 24 25 34 3 9 14 17 24 17 16 0 18 -9 18
-67 0 -49 -4 -70 -14 -74 -10 -4 -7 -12 14 -33 15 -15 25 -30 22 -32 -9 -9 34
-46 47 -41 6 3 13 -4 13 -14 2 -27 27 -49 57 -49 14 0 26 -4 26 -10 0 -5 9
-10 20 -10 11 0 20 5 20 10 0 6 7 10 16 10 21 0 45 25 47 49 1 12 6 17 16 13
11 -4 13 -1 7 13 -4 11 0 25 10 36 10 11 14 19 10 19 -4 0 0 7 9 16 9 9 14 22
11 29 -2 7 6 18 20 25 13 8 24 22 24 32 0 10 5 18 10 18 6 0 10 14 10 30 0 17
5 30 10 30 6 0 10 12 10 26 0 15 4 23 11 18 7 -4 9 2 7 17 -1 13 -10 24 -18
25 -23 0 -47 -29 -42 -51 3 -11 1 -17 -3 -13 -9 8 -42 -32 -37 -45 1 -4 -5
-10 -13 -13 -8 -3 -12 -10 -9 -15 3 -5 -1 -9 -9 -9 -9 0 -13 -10 -12 -27 1
-20 -6 -33 -23 -44 -13 -9 -24 -20 -24 -25 0 -5 -4 -8 -9 -6 -5 1 -9 -19 -9
-44 0 -32 -4 -44 -12 -41 -7 2 -20 -2 -30 -10 -14 -13 -19 -13 -40 1 -14 9
-28 13 -31 9 -4 -3 -7 1 -7 11 0 9 -4 15 -8 12 -11 -7 -40 45 -37 66 2 9 -3
19 -11 22 -12 5 -11 13 9 48 22 41 32 109 22 154 -4 17 -12 21 -41 20 -20 0
-39 -7 -41 -13z"/>
<path d="M605 2700 c4 -6 -10 -10 -35 -10 -24 0 -48 -7 -57 -15 -8 -8 -19 -13
-24 -9 -6 3 -16 0 -24 -6 -8 -6 -26 -13 -42 -15 -15 -1 -29 -8 -31 -14 -2 -6
-7 -9 -12 -6 -5 3 -14 -1 -22 -8 -7 -8 -21 -13 -31 -11 -9 1 -17 -2 -17 -8 0
-14 -26 -38 -34 -31 -3 4 -6 -1 -6 -10 0 -9 -7 -17 -16 -17 -18 0 -44 -23 -44
-40 0 -6 -13 -23 -30 -37 -16 -13 -30 -31 -30 -39 0 -8 -4 -14 -10 -14 -5 0
-10 -7 -10 -15 0 -8 -3 -15 -8 -15 -4 0 -13 -15 -21 -32 -7 -18 -19 -46 -27
-61 -7 -15 -11 -34 -8 -41 3 -7 -2 -21 -11 -30 -9 -9 -13 -20 -10 -26 3 -6 0
-13 -9 -16 -10 -4 -13 -17 -11 -42 2 -20 6 -95 10 -167 8 -178 21 -244 59
-302 52 -81 156 -202 186 -218 15 -8 34 -20 42 -27 18 -18 80 -43 153 -64 33
-9 67 -20 76 -24 10 -5 21 -4 28 3 7 7 11 7 11 1 0 -7 45 -11 118 -12 101 -1
122 2 151 19 19 11 51 21 73 22 21 1 38 6 38 13 0 6 7 17 15 24 11 10 18 9 30
-4 21 -21 27 -20 23 2 -2 11 2 20 7 22 6 2 16 10 23 19 11 15 13 14 25 -1 8
-10 17 -15 20 -11 4 3 7 -8 7 -26 0 -39 16 -57 50 -57 30 0 28 -14 30 201 2
234 5 214 -30 213 -19 -1 -30 -6 -30 -15 0 -8 -4 -12 -9 -8 -14 8 -36 -65 -32
-107 2 -31 -1 -38 -15 -38 -9 0 -14 -3 -11 -6 4 -4 -2 -14 -13 -24 -10 -9 -20
-23 -22 -30 -5 -23 -25 -40 -48 -40 -12 0 -18 -4 -15 -10 3 -5 -3 -10 -13 -10
-11 0 -25 -6 -32 -14 -6 -8 -18 -12 -26 -9 -9 3 -14 -1 -14 -12 0 -12 -5 -15
-17 -11 -9 4 -20 1 -24 -6 -6 -9 -39 -13 -114 -13 -58 0 -105 3 -105 7 0 3 -9
4 -20 1 -20 -5 -160 55 -160 70 0 4 -7 7 -15 7 -8 0 -15 5 -15 10 0 6 -6 10
-14 10 -8 0 -18 9 -21 20 -3 11 -13 27 -21 35 -12 12 -12 15 -2 15 8 0 9 3 2
8 -18 12 -74 124 -74 149 0 13 -4 23 -9 23 -5 0 -11 44 -15 98 -3 53 -9 119
-12 145 -4 31 -2 53 5 60 14 14 15 67 1 67 -5 0 -10 18 -10 40 0 22 5 40 10
40 6 0 10 9 10 20 0 11 5 20 10 20 6 0 10 6 10 13 0 31 23 89 43 109 12 11 17
18 10 14 -21 -11 10 39 43 71 16 15 35 40 43 55 8 16 17 26 19 23 3 -3 12 4
19 15 8 11 18 18 23 15 5 -3 15 4 23 16 11 15 16 17 20 7 4 -8 6 -7 6 5 1 10
5 16 10 13 5 -3 11 0 14 7 3 9 39 13 138 12 74 0 140 -4 146 -8 7 -5 23 -10
35 -12 13 -3 31 -14 41 -26 9 -12 17 -18 17 -15 0 3 8 -2 18 -11 10 -10 17
-23 15 -30 -3 -6 4 -14 14 -17 10 -3 27 -19 36 -36 10 -16 21 -30 25 -30 4 0
9 -10 9 -22 1 -13 7 -24 13 -26 5 -2 10 -8 10 -14 0 -6 11 -23 25 -40 14 -16
25 -26 25 -21 0 4 9 -5 20 -22 11 -16 20 -25 21 -20 0 6 2 26 4 45 3 24 1 30
-5 20 -8 -13 -10 -12 -10 3 0 9 4 17 8 17 4 0 8 8 8 18 1 28 12 80 19 91 3 6
1 11 -5 11 -7 0 -10 34 -9 101 1 55 -1 102 -4 105 -2 3 -16 2 -31 -2 -21 -5
-26 -12 -26 -39 0 -19 -8 -41 -17 -51 -17 -17 -18 -16 -23 7 -4 21 -10 24 -50
24 -35 -1 -50 4 -67 23 -12 13 -27 21 -33 17 -5 -3 -13 1 -16 9 -5 13 -23 16
-84 16 -44 0 -82 5 -85 10 -3 6 -38 10 -76 10 -44 0 -68 -4 -64 -10z"/>
<path d="M3290 2700 c0 -5 -16 -10 -36 -10 -20 0 -42 -6 -48 -14 -6 -8 -40
-24 -76 -36 -54 -17 -75 -31 -123 -81 -37 -39 -63 -59 -72 -55 -8 3 -15 1 -15
-5 0 -13 -25 -39 -38 -39 -6 0 -8 -9 -5 -20 4 -14 0 -20 -11 -20 -10 0 -14 -5
-11 -11 4 -5 -1 -19 -11 -30 -9 -10 -13 -19 -8 -19 5 0 1 -5 -8 -10 -10 -6
-15 -19 -13 -30 2 -11 -2 -20 -8 -20 -7 0 -6 -4 3 -10 13 -8 13 -10 -2 -10
-11 0 -15 -5 -12 -15 4 -9 0 -15 -7 -15 -11 0 -11 -3 1 -10 12 -8 12 -10 1
-10 -8 0 -11 -3 -8 -6 4 -4 -2 -14 -12 -23 -13 -11 -18 -29 -18 -58 0 -23 -6
-50 -14 -59 -9 -11 -9 -15 -1 -10 14 9 14 14 14 -134 0 -73 4 -118 11 -122 6
-4 12 -17 12 -30 1 -13 6 -34 12 -48 13 -30 26 -63 27 -71 1 -3 20 -24 44 -47
23 -22 42 -46 42 -53 0 -20 109 -117 146 -129 27 -9 33 -15 23 -21 -9 -7 -5
-7 13 -3 22 5 33 0 55 -24 19 -22 41 -33 71 -38 24 -4 49 -13 56 -20 19 -18
245 -17 264 2 7 8 18 12 23 9 5 -4 9 0 9 8 0 11 10 13 39 11 26 -2 41 1 44 10
3 8 18 13 37 11 17 -1 29 0 26 2 -7 7 24 37 40 39 18 3 204 191 204 207 0 7 9
19 20 27 11 8 20 22 20 32 0 10 4 18 9 18 5 0 12 11 15 25 4 14 11 25 16 25 5
0 7 9 5 20 -2 11 2 25 8 32 15 16 16 90 1 109 -15 20 -12 292 3 311 10 11 7
18 -13 33 -14 10 -22 25 -20 32 3 8 -1 16 -9 19 -8 4 -15 15 -15 25 0 10 -5
19 -11 19 -5 0 -8 4 -4 9 3 5 -6 21 -20 35 -14 14 -25 31 -25 38 0 8 -9 20
-20 28 -11 8 -20 21 -20 28 0 16 -59 74 -69 68 -4 -3 -15 6 -25 19 -10 14 -23
22 -28 19 -5 -3 -20 6 -32 21 -13 15 -28 25 -34 21 -15 -9 -72 14 -72 30 0 10
-13 14 -45 14 -25 0 -45 5 -45 10 0 6 -48 10 -125 10 -77 0 -125 -4 -125 -10z
m140 -85 c8 -5 39 -9 69 -10 42 -2 58 -7 72 -24 9 -11 28 -21 41 -21 28 0 164
-132 154 -149 -4 -6 0 -11 9 -11 11 0 15 -5 11 -15 -3 -8 1 -21 9 -29 8 -8 15
-28 15 -45 0 -17 5 -31 10 -31 6 0 10 -14 10 -31 0 -21 4 -28 13 -23 7 5 6 0
-3 -11 -8 -10 -10 -16 -3 -12 8 5 11 0 10 -13 -1 -11 -6 -20 -12 -20 -5 0 -3
-5 5 -11 12 -9 13 -12 1 -16 -11 -4 -11 -7 0 -13 10 -7 10 -12 -2 -26 -8 -10
-9 -15 -3 -11 7 4 12 -2 12 -18 0 -14 -6 -25 -12 -25 -6 0 -4 -5 4 -10 13 -9
13 -11 0 -20 -8 -5 -10 -10 -4 -10 6 0 12 -11 12 -25 0 -16 -5 -22 -12 -18 -6
4 -4 -2 4 -12 12 -15 13 -19 1 -23 -11 -4 -11 -6 0 -13 9 -6 10 -12 4 -16 -15
-12 -17 -43 -3 -43 10 0 10 -2 1 -8 -6 -4 -13 -32 -14 -62 -1 -30 -7 -58 -13
-62 -6 -4 -11 -13 -11 -20 -1 -7 -6 -12 -11 -11 -7 1 -9 -8 -6 -22 3 -17 -1
-27 -12 -31 -9 -3 -14 -10 -11 -14 3 -5 -2 -13 -11 -18 -9 -5 -14 -11 -12 -14
1 -2 -17 -28 -42 -56 -24 -29 -47 -56 -50 -60 -11 -17 -101 -63 -111 -57 -5 4
-18 3 -27 -1 -45 -19 -196 -24 -214 -6 -7 7 -17 12 -22 12 -6 0 -4 -5 4 -10 9
-6 10 -10 3 -10 -6 0 -15 5 -18 10 -3 6 -17 10 -31 10 -13 0 -24 4 -24 10 0 5
-3 9 -7 9 -21 -3 -33 2 -27 13 4 6 3 8 -3 5 -12 -7 -66 27 -56 36 3 4 -1 7
-10 7 -9 0 -17 4 -17 9 0 5 -7 16 -15 24 -8 8 -16 21 -17 28 -2 8 -9 20 -16
27 -7 8 -10 18 -7 23 4 5 2 9 -3 9 -9 0 -9 2 -13 57 -1 20 -6 30 -13 26 -6 -4
-2 4 8 16 16 17 16 20 4 16 -13 -5 -16 0 -14 28 1 20 -2 33 -6 31 -5 -3 -9 3
-10 13 -1 10 -2 25 -4 33 -1 8 -2 34 -3 58 -1 24 -4 41 -8 39 -13 -8 -14 194
-2 243 12 48 30 92 41 100 4 3 9 16 11 28 2 12 8 27 14 33 6 6 9 18 6 25 -3 9
0 12 8 9 10 -4 14 5 14 32 0 21 5 44 12 51 7 8 11 18 8 23 -4 5 1 9 10 9 9 0
13 5 10 10 -3 6 3 10 14 10 11 0 23 5 26 10 3 6 15 10 26 10 11 0 17 5 14 10
-5 8 19 15 28 8 6 -5 37 30 37 41 0 6 15 8 34 6 20 -3 38 1 44 8 12 14 80 16
102 2z"/>
<path d="M7470 2700 c0 -6 -27 -10 -60 -10 -33 0 -60 -4 -60 -10 0 -5 -9 -10
-20 -10 -11 0 -23 -6 -26 -13 -2 -7 -17 -12 -34 -11 -20 1 -30 -3 -30 -12 0
-8 -4 -14 -8 -14 -19 0 -119 -106 -116 -123 1 -10 -9 -29 -22 -42 -14 -14 -20
-25 -13 -25 8 0 8 -4 2 -12 -15 -19 -9 -118 6 -128 8 -4 11 -12 7 -18 -3 -6
-1 -12 5 -14 7 -2 13 -16 13 -32 1 -15 8 -31 15 -36 8 -4 11 -12 8 -17 -8 -12
68 -83 88 -83 8 0 15 -6 15 -14 0 -8 9 -12 27 -10 16 2 32 -4 39 -14 7 -9 16
-14 20 -10 4 4 17 -2 29 -15 11 -12 28 -23 35 -25 8 -2 17 -7 20 -11 3 -5 13
-7 23 -5 9 1 17 -4 17 -12 0 -8 9 -14 20 -14 11 0 20 -4 20 -10 0 -5 9 -10 20
-10 11 0 20 -4 20 -10 0 -5 8 -10 18 -10 10 0 24 -9 32 -20 8 -11 22 -20 32
-20 10 0 18 -4 18 -10 0 -5 9 -10 19 -10 11 0 23 -4 26 -10 3 -5 15 -10 26
-10 11 0 17 -4 14 -10 -3 -5 1 -10 9 -10 9 0 16 -4 16 -10 0 -5 14 -22 30 -37
20 -18 30 -36 30 -55 0 -17 4 -27 10 -23 6 4 10 -21 10 -67 0 -62 -3 -76 -20
-88 -11 -8 -20 -22 -20 -32 0 -10 -7 -18 -17 -18 -9 0 -13 -3 -10 -7 11 -10
-13 -33 -35 -33 -10 0 -21 -6 -24 -14 -4 -9 -16 -12 -40 -9 -23 3 -36 0 -39
-9 -4 -11 -30 -14 -113 -13 -109 2 -138 10 -173 48 -9 9 -22 17 -28 17 -17 0
-121 107 -121 124 0 8 -4 16 -10 18 -5 2 -10 26 -11 55 -1 29 -6 50 -11 47 -4
-3 -8 1 -9 8 -4 66 -3 78 6 78 23 1 -22 20 -47 20 -22 0 -26 -4 -23 -20 2 -11
-2 -20 -8 -20 -9 0 -12 -54 -12 -217 l0 -218 25 0 c14 0 26 5 28 10 2 6 10 17
18 26 8 9 12 18 9 21 -3 3 1 11 10 18 13 10 19 10 33 -4 10 -9 22 -13 25 -10
4 4 9 0 13 -9 3 -8 14 -14 24 -12 10 2 21 -3 24 -11 3 -9 16 -12 36 -10 16 2
34 -2 40 -9 6 -8 36 -12 77 -12 42 0 68 -4 71 -11 5 -16 82 -16 82 1 0 8 20
12 71 11 49 -1 72 3 76 12 2 7 13 11 24 9 11 -2 19 2 19 10 0 9 6 12 15 9 8
-4 17 1 21 9 3 9 12 13 20 10 7 -3 16 2 20 10 3 9 14 14 25 12 12 -2 19 2 19
11 0 8 5 12 10 9 6 -3 10 2 10 11 0 10 3 14 7 11 7 -8 39 34 35 46 -1 4 5 15
13 23 8 9 13 20 10 25 -4 5 0 9 7 9 20 0 19 250 -1 273 -7 10 -10 17 -5 17 5
0 -25 34 -66 75 -41 41 -79 74 -85 72 -5 -2 -18 7 -29 21 -12 15 -26 22 -37
19 -10 -3 -24 2 -30 9 -7 8 -18 13 -25 10 -7 -3 -15 2 -18 10 -3 8 -12 14 -20
14 -8 0 -17 6 -19 13 -4 10 -6 10 -6 0 -1 -7 -6 -13 -12 -13 -5 0 -8 4 -5 8 2
4 -3 8 -12 8 -29 1 -47 9 -63 27 -9 9 -24 17 -33 17 -9 0 -16 4 -16 9 0 5 -16
9 -36 9 -20 0 -41 5 -47 11 -6 6 -19 11 -30 11 -10 0 -15 5 -12 10 3 6 1 10
-5 10 -6 0 -18 7 -26 15 -12 11 -12 15 -2 15 7 0 2 7 -10 16 -12 8 -20 20 -17
25 4 5 2 9 -3 9 -5 0 -9 6 -9 13 0 6 -4 21 -8 32 -5 16 -5 17 4 5 7 -9 11 -10
11 -3 0 6 -4 14 -8 17 -5 3 -9 33 -10 68 0 52 3 65 22 83 12 11 20 27 18 34
-3 8 0 11 7 7 6 -4 11 0 11 9 0 9 5 13 10 10 6 -3 10 -1 10 5 0 6 8 10 18 8 9
-2 16 2 15 8 -2 12 3 13 67 17 37 2 46 7 48 23 2 16 10 21 32 21 17 0 30 -6
30 -12 0 -7 10 -11 23 -11 12 1 28 -2 35 -8 7 -5 25 -11 39 -12 14 -2 29 -8
33 -15 4 -6 12 -9 18 -5 5 3 13 -1 16 -10 3 -8 12 -14 19 -12 16 4 67 -46 67
-64 0 -8 9 -20 20 -28 11 -8 20 -22 20 -32 0 -10 4 -18 10 -18 5 0 10 -28 12
-62 3 -51 6 -62 22 -64 11 -1 29 4 40 12 18 12 21 25 22 87 0 39 -4 78 -10 86
-15 20 -16 44 -2 61 17 20 14 93 -5 112 -23 23 -67 20 -71 -5 -2 -16 -11 -20
-40 -22 -22 0 -38 4 -38 10 0 6 -12 11 -27 10 -20 0 -30 6 -33 20 -5 15 -15
20 -47 22 -23 1 -59 7 -80 12 -48 14 -143 14 -143 1z"/>
<path d="M1410 2664 c0 -14 4 -23 10 -19 6 3 10 -1 10 -10 0 -11 7 -14 26 -11
16 3 27 0 31 -10 3 -7 8 -12 12 -10 15 9 29 -10 32 -44 2 -19 10 -40 17 -46
12 -9 12 -13 0 -25 -12 -12 -15 -59 -15 -261 0 -177 3 -246 11 -241 6 3 5 0
-1 -8 -15 -15 -19 -509 -4 -509 13 0 21 -40 8 -41 -7 -1 -48 -2 -92 -3 l-80
-1 -5 -41 -6 -41 41 0 c22 0 43 5 47 10 9 15 239 16 245 1 6 -17 180 -14 194
2 13 16 19 63 9 69 -4 3 -13 -1 -19 -9 -14 -17 -69 -15 -80 3 -5 7 -13 11 -18
8 -14 -9 -43 30 -43 57 0 14 6 27 13 29 9 4 8 8 -3 17 -11 9 -12 13 -2 17 15
6 18 233 2 233 -5 0 -10 23 -10 50 0 28 5 50 10 50 14 0 12 38 -2 42 -9 3 -7
10 6 23 15 16 33 19 102 18 75 -1 85 -3 108 -26 14 -15 26 -33 26 -42 0 -8 5
-15 10 -15 6 0 10 -13 10 -30 0 -16 5 -30 10 -30 6 0 10 -12 10 -26 0 -14 4
-23 10 -19 6 3 10 -3 10 -14 0 -11 5 -23 10 -26 6 -3 10 -15 10 -26 0 -11 5
-17 10 -14 6 3 10 -1 10 -9 0 -9 3 -16 8 -16 4 0 13 -13 20 -30 8 -16 20 -30
28 -30 9 0 13 -4 10 -9 -3 -5 1 -11 9 -15 8 -3 12 -12 9 -19 -3 -8 2 -17 10
-20 9 -4 13 -13 10 -22 -3 -8 -2 -15 4 -15 10 0 38 -60 34 -72 -1 -5 2 -8 6
-8 5 0 14 -12 20 -26 7 -14 16 -23 21 -20 5 4 11 1 13 -4 2 -6 16 -13 33 -16
16 -3 34 -9 40 -13 13 -10 224 -8 248 3 22 10 22 39 0 57 -9 8 -35 15 -57 15
-72 3 -77 4 -71 13 3 5 -2 17 -11 25 -9 9 -13 23 -10 31 3 9 0 15 -8 15 -8 0
-19 14 -26 30 -7 17 -21 35 -31 41 -11 5 -19 16 -19 23 0 14 -39 96 -51 106
-3 3 -16 23 -29 45 -13 22 -31 45 -39 51 -8 6 -11 16 -8 21 4 6 0 14 -9 17 -8
3 -13 10 -10 15 3 5 -1 14 -9 21 -8 7 -15 18 -15 25 0 6 -9 20 -19 29 -17 16
-19 30 -12 75 1 2 10 -6 20 -18 18 -21 20 -21 33 -4 7 10 20 19 28 21 8 2 17
8 18 13 2 5 8 7 13 3 5 -3 9 -1 9 5 0 5 27 37 61 71 58 59 61 63 61 113 1 29
6 55 11 58 5 4 10 54 10 112 1 111 -8 137 -44 137 -11 0 -19 7 -19 16 0 8 -4
13 -8 10 -5 -3 -16 6 -26 19 -10 14 -22 22 -27 19 -5 -3 -12 1 -15 10 -3 8
-11 13 -19 10 -7 -3 -20 2 -29 11 -9 9 -20 13 -26 10 -6 -3 -13 1 -16 9 -3 9
-14 16 -23 16 -9 0 -23 8 -30 19 -13 18 -32 19 -297 20 -261 1 -283 0 -293
-16 -9 -17 -10 -17 -16 0 -6 14 -20 17 -76 17 -67 0 -69 -1 -69 -26z m578 -51
c4 -6 19 -10 34 -8 17 2 37 -5 55 -21 15 -13 33 -24 39 -24 6 0 19 -9 29 -20
10 -11 26 -20 36 -20 12 0 16 -5 13 -15 -4 -8 1 -17 9 -21 8 -3 14 -13 12 -22
-1 -9 3 -20 9 -24 7 -4 11 -52 11 -128 1 -96 -2 -120 -13 -120 -9 0 -12 -6 -8
-16 6 -16 -39 -63 -61 -64 -7 0 -13 -4 -13 -10 0 -5 -7 -10 -16 -10 -8 0 -13
-4 -9 -9 7 -12 -58 -33 -106 -34 -21 0 -40 -6 -43 -12 -5 -15 -97 -10 -106 6
-6 8 -10 7 -17 -5 -7 -14 -12 -14 -36 -1 -15 8 -31 13 -35 12 -4 -1 -8 13 -10
31 -2 17 -7 32 -13 32 -5 0 -9 14 -9 30 0 17 5 30 10 30 6 0 10 79 10 218 l0
218 65 -2 c35 0 64 2 63 5 -1 15 5 17 48 16 25 0 48 -6 52 -12z"/>
<path d="M4744 2677 c-10 -6 -29 -11 -42 -12 -12 0 -26 -5 -30 -11 -4 -6 -24
-17 -44 -23 -26 -9 -38 -19 -38 -31 0 -14 -6 -18 -26 -15 -15 1 -28 -3 -31
-11 -3 -8 -9 -11 -14 -8 -5 3 -9 0 -9 -6 0 -7 -13 -25 -30 -40 -16 -15 -30
-33 -30 -40 0 -7 -21 -32 -46 -55 -25 -24 -43 -49 -39 -54 3 -6 1 -11 -4 -11
-6 0 -11 -6 -11 -14 0 -8 -7 -21 -15 -29 -8 -8 -12 -25 -10 -36 2 -12 -2 -24
-8 -27 -9 -3 -13 -34 -13 -105 0 -66 -4 -103 -11 -107 -8 -5 -11 -37 -10 -97
3 -79 7 -99 37 -160 18 -38 36 -72 40 -75 3 -3 7 -16 7 -29 1 -13 7 -27 13
-31 6 -4 10 -11 8 -16 -4 -11 194 -210 205 -206 4 1 15 -4 23 -13 9 -9 26 -13
40 -11 14 3 22 1 19 -5 -6 -9 -2 -11 37 -13 13 0 24 -8 26 -18 2 -9 10 -19 18
-22 10 -4 12 -2 8 6 -5 7 -3 8 7 2 8 -5 19 -9 24 -10 6 0 16 -2 23 -2 7 -1 11
-6 8 -10 -3 -5 54 -9 126 -9 100 -1 135 3 146 13 7 8 17 12 22 9 4 -3 10 1 13
8 3 8 16 13 28 12 13 -1 30 4 37 12 8 7 18 11 23 7 6 -3 21 1 34 10 13 9 31
13 39 10 9 -4 18 1 22 10 3 9 10 14 14 11 4 -3 10 2 14 10 8 23 39 19 33 -4
-2 -11 3 -30 12 -43 19 -27 51 -33 51 -9 0 9 5 22 12 29 12 12 16 347 4 359
-3 3 -6 -1 -6 -9 0 -17 -44 -33 -62 -22 -7 4 -8 3 -4 -4 4 -6 -1 -19 -11 -29
-10 -10 -17 -27 -15 -37 3 -11 0 -16 -7 -12 -7 5 -11 -5 -11 -27 0 -22 -6 -37
-15 -41 -8 -3 -12 -12 -9 -21 4 -10 0 -15 -13 -15 -10 0 -25 -9 -33 -20 -8
-11 -18 -20 -22 -20 -12 0 -98 -57 -93 -61 2 -3 -5 -6 -17 -6 -12 -1 -24 -6
-27 -10 -3 -5 -13 -8 -21 -8 -8 0 -21 -6 -28 -15 -10 -11 -11 -11 -6 -1 6 11
3 13 -12 7 -10 -5 -48 -8 -84 -8 -99 0 -112 1 -106 10 2 4 -7 7 -22 7 -37 -2
-158 64 -174 95 -7 14 -21 34 -31 45 -10 10 -15 25 -13 32 3 7 0 12 -6 10 -5
-1 -12 7 -14 18 -1 11 -8 21 -13 23 -6 2 -11 15 -11 28 0 14 -4 23 -9 20 -10
-6 -10 11 0 29 8 15 0 46 -21 87 -15 27 -12 451 3 460 9 6 9 8 -1 8 -12 0 -11
4 16 57 7 13 12 29 12 37 0 8 5 16 10 18 6 2 12 13 13 26 0 12 5 22 10 22 10
0 56 46 58 58 0 4 5 6 10 5 5 -2 8 3 7 10 -2 7 5 11 16 9 11 -2 15 1 11 7 -3
6 -2 11 4 11 5 0 17 7 25 16 9 9 16 11 16 4 0 -6 14 4 30 22 17 18 30 29 30
24 0 -5 8 -2 17 5 13 11 15 11 9 1 -6 -10 0 -9 23 2 18 10 31 12 31 6 0 -7 7
-8 18 -3 20 10 57 9 90 -1 15 -5 22 -3 23 6 0 7 4 4 9 -7 5 -11 9 -14 9 -8 1
9 8 10 26 3 17 -7 25 -6 25 1 0 8 5 7 15 -1 8 -7 22 -10 30 -6 9 3 15 0 15 -9
0 -8 6 -14 13 -12 6 1 11 -4 10 -11 -2 -6 0 -11 5 -11 20 3 32 -2 32 -15 0 -8
5 -18 12 -22 7 -4 8 -3 4 4 -4 7 -5 12 -1 12 3 0 10 -11 15 -25 6 -16 15 -23
25 -19 9 4 17 -1 22 -12 3 -11 11 -22 16 -25 6 -4 15 -23 22 -43 17 -49 77
-146 90 -146 5 0 18 7 28 15 17 12 19 28 17 152 -3 249 1 228 -43 229 -34 1
-38 -2 -45 -30 -6 -21 -15 -32 -30 -34 -12 -2 -22 1 -22 6 0 5 -21 17 -47 27
-27 9 -62 25 -79 35 -28 16 -58 18 -231 18 -125 0 -207 -5 -219 -11z"/>
<path d="M5608 2678 c-3 -7 -13 -13 -24 -13 -18 0 -19 -5 -15 -48 1 -9 20 -12
69 -12 37 1 73 -1 80 -3 9 -3 12 -39 12 -133 0 -79 4 -129 10 -129 6 0 10 -70
10 -190 0 -120 -4 -190 -10 -190 -6 0 -10 -46 -10 -119 0 -69 4 -122 10 -126
6 -3 10 -15 10 -26 0 -10 5 -19 10 -19 6 0 10 -13 10 -30 0 -22 5 -30 18 -30
13 0 14 -2 3 -9 -9 -6 -10 -11 -3 -15 6 -4 8 -14 5 -23 -5 -12 -3 -14 7 -8 10
6 12 4 7 -8 -3 -10 -2 -17 3 -17 5 0 7 -7 3 -16 -4 -10 1 -17 16 -21 11 -3 21
-9 21 -14 0 -5 7 -9 15 -9 8 0 15 -3 15 -8 0 -4 14 -13 31 -21 17 -7 47 -28
67 -46 28 -27 40 -32 54 -24 12 6 18 6 18 -1 0 -5 5 -10 11 -10 5 0 7 5 3 12
-5 7 -3 8 7 2 8 -4 37 -9 65 -9 27 -1 55 -5 61 -8 7 -4 14 -4 16 0 3 5 61 8
130 8 81 0 123 4 119 10 -3 6 2 4 11 -4 13 -11 17 -11 17 -1 0 8 3 11 6 7 4
-3 21 1 38 10 17 10 34 16 39 15 4 -1 7 5 7 14 0 8 5 12 10 9 6 -3 10 1 10 9
0 9 3 15 8 15 22 -4 32 3 32 22 0 11 5 17 10 14 6 -3 10 5 10 18 0 14 7 28 16
31 8 3 12 10 9 16 -3 5 5 21 19 35 15 14 26 32 26 40 0 8 3 15 8 15 4 0 7 41
7 90 0 51 4 94 10 98 14 9 14 580 0 590 -14 10 -13 134 1 139 7 2 10 13 7 23
-4 16 0 20 23 21 134 5 144 9 144 55 0 30 -3 34 -26 34 -15 0 -33 -8 -40 -17
-13 -17 -13 -17 -14 0 0 16 -8 18 -65 16 -35 -1 -66 -7 -68 -13 -5 -14 -106
-14 -115 0 -10 14 -32 16 -32 3 0 -8 -6 -7 -17 2 -11 10 -14 10 -9 2 4 -7 3
-13 -1 -13 -5 0 -15 6 -22 13 -11 10 -13 10 -7 0 5 -9 -1 -13 -18 -13 -21 0
-25 -4 -22 -22 2 -17 10 -23 28 -23 14 0 31 -5 39 -11 8 -7 38 -10 69 -8 l56
3 -4 -71 c-3 -47 -1 -73 8 -78 16 -10 17 -533 1 -538 -7 -2 -11 -61 -11 -178
0 -152 -2 -174 -16 -174 -8 0 -33 -18 -55 -40 -22 -22 -45 -40 -51 -40 -6 0
-25 -15 -42 -32 -22 -24 -40 -33 -61 -32 -16 0 -38 -6 -47 -14 -9 -8 -22 -11
-27 -7 -6 3 -11 0 -11 -8 0 -17 -70 -19 -82 -2 -4 5 -32 10 -63 10 -34 1 -59
6 -64 13 -4 7 -14 12 -22 10 -8 -2 -14 4 -14 13 0 18 -28 49 -45 49 -16 0 -60
47 -60 65 0 8 -4 15 -10 15 -5 0 -10 14 -10 30 0 17 -4 30 -10 30 -6 0 -10 27
-10 60 0 39 -4 62 -12 65 -10 4 -13 95 -11 413 1 224 2 414 2 422 1 13 15 16
74 15 76 -2 100 7 90 32 -4 11 -2 14 5 9 19 -11 14 9 -6 27 -22 20 -82 23 -82
4 0 -8 -16 -12 -52 -11 -78 3 -80 3 -73 14 4 6 -45 10 -139 10 -106 0 -145 -3
-148 -12z"/>
<path d="M6752 1770 c0 -14 2 -19 5 -12 2 6 2 18 0 25 -3 6 -5 1 -5 -13z"/>
<path d="M5400 1756 c0 -9 7 -12 20 -9 11 3 20 9 20 14 0 5 -9 9 -20 9 -11 0
-20 -6 -20 -14z"/>
</g>
</svg>
