<?xml version="1.0" standalone="no"?>
<!DOCTYPE svg PUBLIC "-//W3C//DTD SVG 20010904//EN"
 "http://www.w3.org/TR/2001/REC-SVG-20010904/DTD/svg10.dtd">
<svg version="1.0" xmlns="http://www.w3.org/2000/svg"
 width="899.000000pt" height="899.000000pt" viewBox="0 0 899.000000 899.000000"
 preserveAspectRatio="xMidYMid meet">
<metadata>
Created by potrace 1.14, written by Peter Selinger 2001-2017
</metadata>
<g transform="translate(0.000000,899.000000) scale(0.100000,-0.100000)"
fill="#000000" stroke="none">
<path d="M5046 7581 c-14 -10 -23 -21 -19 -26 5 -4 -4 -5 -19 -3 -19 4 -28 1
-28 -8 0 -9 -11 -14 -30 -14 -16 0 -30 -4 -30 -10 0 -5 -8 -10 -18 -10 -10 0
-24 -9 -32 -20 -8 -11 -19 -20 -25 -20 -20 0 -65 -25 -65 -36 0 -13 -55 -69
-68 -69 -6 0 -23 -13 -39 -30 -29 -31 -36 -35 -53 -35 -5 0 -10 -9 -10 -20 0
-11 -4 -20 -10 -20 -5 0 -10 -8 -10 -18 0 -10 -9 -24 -20 -32 -11 -8 -20 -21
-20 -30 0 -8 -11 -24 -25 -34 -13 -10 -22 -23 -19 -28 4 -6 2 -13 -4 -17 -6
-3 -12 -13 -14 -20 -5 -21 -30 -51 -39 -45 -4 2 -6 -4 -4 -13 1 -10 -7 -27
-20 -38 -15 -14 -21 -31 -21 -57 1 -31 -2 -38 -17 -38 -22 0 -47 -23 -47 -42
0 -8 -9 -20 -20 -28 -11 -8 -20 -20 -20 -28 0 -7 -4 -10 -10 -7 -5 3 -10 -1
-10 -10 0 -9 -4 -13 -10 -10 -5 3 -10 -2 -10 -11 0 -10 -3 -15 -6 -11 -10 10
-34 -20 -34 -42 0 -19 6 -21 59 -21 33 0 61 4 63 9 2 6 15 11 30 13 16 2 34
11 40 20 7 9 20 18 28 20 8 2 26 14 39 28 14 14 26 24 28 23 11 -9 23 0 23 16
0 11 6 22 13 24 9 4 8 8 -3 16 -12 8 -11 13 8 29 12 11 22 26 22 35 0 8 6 18
13 21 10 5 10 7 0 12 -19 9 -16 34 8 55 19 17 40 16 64 -1 6 -4 44 -7 85 -7
46 0 76 -5 78 -12 2 -6 12 -11 23 -11 10 0 19 -4 19 -10 0 -5 7 -10 15 -10 23
0 83 -64 87 -91 2 -13 7 -27 12 -30 13 -10 10 -143 -3 -147 -6 -2 -11 -11 -11
-21 0 -9 -9 -23 -20 -31 -15 -11 -20 -26 -20 -62 0 -26 -4 -48 -10 -48 -5 0
-10 -8 -10 -18 0 -21 -36 -59 -47 -49 -3 4 -12 -1 -19 -11 -12 -16 -13 -16
-14 0 0 10 -7 16 -17 14 -28 -4 -49 26 -48 67 1 24 -3 37 -12 37 -7 0 -13 5
-13 10 0 6 -21 10 -46 10 -47 0 -74 16 -74 44 0 11 -9 16 -30 16 -26 0 -30 -4
-30 -26 0 -27 20 -54 42 -54 7 0 22 -11 32 -25 10 -13 22 -22 27 -19 14 8 40
-23 41 -48 2 -38 24 -54 70 -53 24 0 46 -4 50 -9 11 -16 48 -17 48 -2 0 8 8
13 17 12 19 -3 43 16 43 33 0 5 9 8 20 6 22 -4 22 -4 22 70 1 38 6 54 22 68
13 12 20 29 19 50 0 18 4 35 10 39 14 8 17 188 4 188 -16 0 -39 31 -33 45 3 8
0 15 -5 15 -6 0 -27 18 -46 40 -20 22 -41 40 -48 40 -7 0 -18 7 -25 15 -7 9
-19 14 -26 11 -7 -3 -14 0 -17 7 -6 18 -247 17 -247 -1 0 -7 -4 -10 -10 -7 -5
3 -10 -1 -10 -10 0 -9 -7 -27 -16 -40 -9 -14 -12 -25 -8 -25 5 0 2 -5 -6 -11
-11 -8 -12 -12 -2 -16 18 -7 15 -43 -4 -43 -8 0 -12 -4 -9 -10 3 -5 1 -10 -4
-10 -6 0 -11 -7 -11 -16 0 -8 5 -12 10 -9 6 3 10 2 10 -3 0 -6 -7 -13 -16 -16
-8 -3 -13 -10 -10 -14 3 -5 -8 -6 -25 -4 -17 3 -29 0 -29 -7 0 -6 -7 -11 -16
-11 -8 0 -13 -4 -10 -8 3 -5 -3 -15 -12 -23 -16 -13 -20 -13 -36 3 -17 15 -17
18 -3 24 9 3 13 12 10 20 -6 17 23 43 49 44 11 0 16 6 13 20 -3 13 2 20 12 20
9 0 13 6 10 15 -4 8 4 22 17 32 14 12 22 28 22 45 -1 15 4 30 11 32 7 3 13 13
13 23 0 10 9 24 20 31 11 7 20 21 20 32 0 11 5 20 10 20 6 0 10 9 10 20 0 11
5 20 10 20 6 0 10 7 10 15 0 17 124 145 140 145 6 0 9 4 6 8 -7 12 33 44 45
37 5 -4 12 0 15 9 3 8 14 13 24 11 11 -2 23 6 31 21 9 17 19 24 31 21 11 -3
18 0 18 9 0 8 6 14 13 14 18 0 67 24 67 33 0 4 7 7 16 7 8 0 12 5 9 10 -4 6 5
10 20 10 15 0 24 4 20 10 -4 6 5 10 20 10 15 0 24 4 20 10 -3 6 -2 10 2 10 13
0 10 39 -3 44 -6 2 -23 -4 -38 -13z"/>
<path d="M3826 6445 c-3 -8 -14 -12 -26 -10 -13 2 -20 -1 -20 -11 0 -8 -3 -13
-7 -13 -23 4 -33 -3 -33 -21 0 -11 -4 -20 -10 -20 -5 0 -10 -9 -10 -20 0 -11
-4 -20 -10 -20 -6 0 -10 -33 -10 -78 0 -66 3 -82 20 -97 11 -10 20 -24 20 -30
0 -7 20 -31 44 -53 24 -22 41 -43 38 -46 -3 -3 -1 -6 5 -6 18 0 63 -52 63 -73
0 -11 3 -18 6 -14 3 3 17 -5 31 -19 13 -13 29 -22 34 -19 5 4 9 -1 9 -10 0 -9
5 -13 10 -10 6 4 10 -8 10 -30 0 -22 -4 -34 -10 -30 -5 3 -10 -1 -10 -9 0 -9
5 -16 10 -16 6 0 10 -26 10 -58 0 -46 4 -60 20 -72 19 -14 20 -26 20 -217 0
-124 -4 -204 -10 -208 -5 -3 -10 -28 -10 -56 0 -27 -4 -49 -10 -49 -6 0 -10
-62 -10 -165 0 -103 4 -165 10 -165 6 0 10 -20 10 -44 0 -27 6 -48 16 -57 10
-8 13 -21 9 -38 -4 -20 -3 -22 5 -11 7 11 10 2 10 -36 0 -42 5 -56 26 -78 15
-14 31 -26 36 -26 5 0 7 -4 4 -9 -3 -5 1 -12 10 -15 9 -3 14 -12 12 -18 -3 -7
10 -25 28 -39 19 -15 30 -29 27 -33 -9 -8 38 -57 49 -50 4 3 11 -2 14 -10 3
-9 10 -13 15 -10 5 3 9 -1 9 -8 0 -16 37 -41 50 -33 6 4 10 -31 10 -89 0 -60
4 -96 11 -98 8 -3 11 -55 12 -163 0 -152 1 -161 22 -181 21 -19 21 -23 8 -48
-8 -16 -10 -26 -5 -22 5 3 12 -8 16 -25 3 -17 19 -48 36 -69 16 -20 28 -39 25
-42 -2 -2 5 -5 17 -5 11 -1 27 4 34 12 18 18 18 25 -1 25 -8 0 -15 8 -15 18 0
10 -7 27 -15 38 -8 10 -15 29 -15 40 0 12 -7 25 -16 28 -8 3 -12 11 -9 17 4 5
1 18 -7 27 -10 12 -14 44 -13 112 0 52 -3 98 -8 101 -5 4 -3 17 4 30 11 21 10
22 -2 12 -12 -10 -15 -8 -15 7 0 10 5 16 11 13 5 -3 5 0 -2 7 -8 8 -9 20 -2
37 6 16 5 22 -1 18 -6 -3 -10 -1 -10 4 0 6 5 11 11 11 5 0 8 4 5 9 -4 5 0 12
6 14 10 4 10 6 0 6 -8 1 -10 6 -5 14 14 21 10 116 -6 122 -10 4 -8 10 10 26
13 11 25 29 25 40 3 35 4 39 12 39 5 0 22 -11 37 -24 16 -14 33 -24 39 -23 6
1 12 -9 14 -21 3 -18 8 -23 23 -19 15 4 18 2 10 -7 -8 -9 -7 -13 4 -14 8 -1
22 -3 30 -4 8 -1 15 -5 15 -10 0 -5 5 -6 10 -3 6 3 10 -1 10 -9 0 -11 8 -15
25 -14 14 1 25 6 25 11 0 4 5 5 10 2 6 -3 13 1 16 9 3 9 12 16 20 16 21 0 54
32 54 52 0 10 5 18 11 18 5 0 9 8 8 18 -3 31 1 43 12 37 6 -4 10 -1 8 6 -1 8
-1 42 0 77 1 55 3 62 21 62 11 0 20 -4 20 -10 0 -5 9 -10 20 -10 11 0 20 5 20
10 0 6 8 10 18 10 10 0 24 9 32 20 8 11 21 20 30 20 8 0 28 13 43 30 23 24 26
31 14 36 -17 6 -16 36 1 42 7 2 10 8 7 12 -3 5 6 20 20 34 27 27 33 56 12 56
-10 0 -13 13 -11 46 2 31 -1 51 -11 61 -9 8 -13 18 -10 23 3 4 -2 11 -11 14
-14 5 -14 8 0 21 16 17 36 20 36 6 0 -6 9 -8 20 -6 11 2 25 -2 32 -9 18 -17
330 -16 336 2 2 6 8 10 13 6 5 -3 9 2 9 11 0 9 5 13 10 10 6 -3 10 1 10 10 0
9 5 13 10 10 6 -3 10 1 10 10 0 9 5 13 10 10 6 -3 10 1 10 10 0 9 5 13 10 10
11 -7 13 2 11 59 0 21 -5 44 -12 52 -6 7 -8 17 -5 23 3 5 -1 11 -9 15 -9 3
-15 18 -15 36 0 18 -4 29 -10 25 -5 -3 -10 3 -10 14 0 23 -63 91 -85 91 -8 0
-15 5 -15 10 0 6 -9 10 -20 10 -11 0 -25 9 -32 20 -8 12 -24 20 -40 20 -15 0
-30 5 -33 10 -3 6 -15 10 -26 10 -28 0 -25 37 4 42 28 6 49 -1 41 -13 -3 -5 6
-9 20 -9 14 0 26 -4 26 -10 0 -5 9 -10 20 -10 11 0 20 -4 20 -10 0 -5 9 -10
20 -10 11 0 20 -4 20 -10 0 -5 9 -10 20 -10 11 0 20 -5 20 -11 0 -6 20 -9 52
-7 l51 3 0 35 c0 47 -11 80 -28 80 -8 0 -15 13 -17 33 -2 20 -8 32 -18 32 -9
0 -16 11 -18 31 l-3 32 78 -1 c43 0 89 -4 103 -10 41 -16 181 -14 215 2 17 8
33 14 37 13 4 -1 5 5 1 14 -3 9 3 21 16 30 11 8 21 24 21 35 0 15 7 19 35 19
19 0 35 -4 35 -10 0 -5 9 -10 19 -10 11 0 21 -4 23 -9 2 -5 10 -11 18 -13 8
-2 18 -7 21 -12 10 -13 230 -9 243 5 8 9 8 10 -1 5 -7 -4 -13 -2 -13 4 0 31
-30 41 -129 42 -75 0 -101 4 -105 14 -3 7 -12 11 -21 8 -8 -3 -15 -1 -15 5 0
6 -9 11 -19 11 -11 0 -21 5 -23 11 -2 6 -27 12 -56 13 -39 1 -51 -2 -48 -11 3
-7 -2 -13 -10 -13 -11 0 -15 -6 -11 -20 3 -13 0 -20 -9 -20 -9 0 -14 -11 -14
-30 0 -27 -3 -30 -30 -30 -16 0 -30 -4 -30 -10 0 -5 -18 -10 -40 -10 -22 0
-40 5 -40 10 0 6 -42 10 -105 10 -63 0 -105 4 -105 10 0 6 -9 10 -20 10 -11 0
-20 -5 -20 -11 0 -6 -21 -9 -52 -7 -35 2 -52 7 -51 15 4 16 -44 63 -64 63 -8
0 -24 11 -35 25 -11 14 -24 23 -29 19 -5 -3 -16 1 -24 9 -8 8 -27 13 -44 11
-21 -2 -31 1 -31 9 0 10 -16 13 -57 12 -32 -1 -61 3 -65 9 -5 7 -98 11 -275
11 -186 1 -274 4 -289 13 -12 6 -31 10 -43 7 -11 -2 -26 2 -33 9 -15 14 -86
15 -108 1 -24 -15 -40 -15 -40 2 0 8 -8 13 -17 12 -33 -3 -54 1 -49 9 3 5 -9
9 -26 10 -17 0 -34 5 -37 11 -4 5 -22 9 -41 9 -19 -1 -36 4 -38 10 -2 7 -17
12 -33 12 -16 0 -29 5 -29 10 0 6 -7 10 -15 10 -18 0 -91 70 -87 83 3 12 -46
59 -66 61 -9 2 -17 9 -17 17 0 8 -6 19 -14 25 -8 6 -11 16 -8 21 4 6 0 14 -9
17 -9 3 -14 13 -11 20 3 8 -1 20 -9 26 -27 23 -8 100 24 100 6 0 9 9 7 19 -4
23 19 35 33 18 14 -19 8 -143 -7 -139 -17 3 5 -37 25 -45 7 -3 12 -9 9 -13 -5
-8 29 -52 39 -51 20 3 26 -1 26 -15 0 -23 25 -44 54 -44 14 0 26 -4 26 -10 0
-5 9 -10 20 -10 11 0 20 5 20 10 0 6 8 10 18 10 17 0 47 31 43 44 -1 4 5 14
14 22 8 9 13 19 10 24 -3 4 2 11 11 14 9 4 14 9 10 13 -3 3 1 17 9 30 9 13 13
28 10 33 -3 6 -1 10 5 10 19 0 42 29 36 45 -3 9 0 15 8 15 9 0 13 10 12 30 -1
19 3 30 11 30 7 0 13 8 13 18 0 10 5 23 11 29 14 14 4 44 -13 41 -15 -3 -44
-39 -41 -50 2 -4 -8 -15 -20 -25 -12 -10 -22 -25 -22 -33 0 -8 -8 -22 -20 -30
-11 -8 -21 -26 -23 -40 -2 -14 -12 -32 -23 -42 -10 -9 -19 -21 -19 -28 0 -6
-4 -8 -10 -5 -6 4 -10 -12 -10 -40 0 -26 -4 -44 -9 -40 -5 3 -15 -1 -23 -8
-17 -17 -48 -18 -48 -1 0 7 -8 11 -17 10 -21 -4 -63 41 -63 67 0 10 -7 29 -16
42 -15 23 -15 25 0 31 9 3 14 10 11 14 -3 5 1 14 8 22 15 14 24 147 10 149
-58 8 -72 7 -77 -6z"/>
<path d="M1015 3490 c4 -6 -11 -10 -39 -10 -24 0 -46 -5 -48 -10 -2 -6 -14
-12 -28 -12 -14 -1 -28 -6 -32 -12 -3 -5 -18 -10 -33 -10 -14 -1 -30 -8 -35
-16 -6 -8 -10 -11 -10 -7 0 4 -10 2 -22 -5 -13 -7 -27 -11 -31 -10 -4 1 -10
-5 -13 -13 -3 -8 -10 -12 -15 -9 -5 3 -9 0 -9 -6 0 -13 -31 -47 -38 -41 -7 7
-42 -23 -42 -35 0 -7 -16 -28 -36 -48 -21 -21 -33 -40 -28 -47 4 -7 3 -9 -2
-6 -9 5 -27 -25 -67 -111 -9 -18 -14 -42 -12 -53 2 -11 -2 -22 -10 -26 -8 -3
-13 -9 -10 -13 3 -5 -2 -15 -11 -24 -10 -11 -14 -27 -10 -48 3 -18 8 -91 11
-163 8 -178 21 -244 59 -302 75 -116 161 -207 237 -251 56 -32 176 -75 214
-76 11 -1 25 -4 30 -7 6 -3 66 -5 135 -5 104 1 132 4 165 21 22 11 49 20 60
21 37 2 45 4 44 12 -3 20 3 30 18 28 9 -2 19 -8 21 -14 5 -16 22 -5 22 14 0
20 25 45 42 42 20 -4 37 -30 38 -56 0 -13 6 -29 13 -37 18 -18 63 -14 63 5 1
8 2 33 3 55 2 22 3 108 2 191 l-1 152 -27 0 c-15 0 -32 -6 -39 -13 -21 -20
-40 -78 -38 -114 2 -34 -14 -61 -36 -61 -6 0 -9 -4 -6 -9 3 -5 -1 -12 -9 -15
-8 -3 -14 -9 -14 -13 4 -18 -14 -43 -31 -43 -10 0 -20 -5 -22 -10 -2 -6 -13
-12 -26 -13 -12 0 -22 -7 -22 -14 0 -7 -6 -10 -14 -7 -8 3 -17 1 -21 -5 -3 -6
-15 -11 -25 -11 -10 0 -20 -6 -22 -12 -5 -14 -208 -19 -208 -5 0 4 -5 5 -10 2
-6 -4 -17 -2 -25 5 -10 8 -15 8 -21 -1 -5 -8 -3 -9 6 -4 8 5 11 4 6 -3 -4 -7
-27 1 -67 24 -34 19 -65 34 -70 34 -5 0 -9 5 -9 10 0 6 -7 10 -15 10 -8 0 -15
5 -15 11 0 5 -4 7 -10 4 -5 -3 -10 1 -10 9 0 9 -8 16 -17 16 -9 0 -13 3 -10 7
4 3 0 17 -9 31 -11 17 -12 22 -3 17 9 -6 9 -2 -2 11 -29 35 -69 116 -69 140 0
13 -4 24 -10 24 -5 0 -9 34 -9 78 0 42 -5 93 -11 112 -12 43 -13 107 -1 114
16 10 19 57 5 63 -16 6 -20 83 -4 83 6 0 10 9 10 20 0 11 7 20 16 20 8 0 12 4
9 10 -9 14 13 86 31 105 8 8 12 15 7 15 -4 0 -2 4 5 9 7 4 14 17 15 29 0 12 3
19 5 17 6 -6 60 49 64 65 6 28 56 65 81 61 4 0 6 4 5 11 -2 7 2 12 9 13 7 0
23 9 35 20 20 17 39 20 153 20 78 1 136 -3 144 -9 8 -6 23 -11 33 -11 10 0 23
-7 28 -15 5 -8 10 -11 10 -7 0 5 12 -6 28 -24 15 -18 26 -37 25 -41 -2 -4 1
-8 7 -8 14 0 60 -52 54 -62 -3 -4 2 -8 11 -8 11 0 15 -5 11 -15 -3 -8 1 -21 9
-29 8 -8 15 -18 15 -23 0 -14 47 -63 54 -56 3 3 6 -1 6 -10 0 -9 5 -17 10 -17
6 0 10 6 10 13 0 8 4 7 10 -3 8 -11 9 -8 6 12 -3 15 -7 32 -10 37 -4 5 -1 13
5 17 8 4 7 9 -2 15 -10 6 -11 9 -1 9 7 0 12 13 12 29 0 17 5 33 10 36 5 3 10
11 10 16 0 6 -4 7 -10 4 -6 -4 -10 34 -10 106 0 111 0 111 -22 105 -13 -3 -26
-6 -30 -6 -5 0 -8 -15 -8 -34 0 -20 -8 -42 -17 -52 -17 -17 -18 -17 -21 4 -4
25 -1 24 -61 27 -32 1 -48 8 -61 25 -9 13 -22 20 -28 16 -6 -3 -15 0 -19 9 -7
12 -25 15 -86 13 -54 -2 -78 1 -82 10 -3 8 -28 12 -75 12 -45 0 -69 -4 -65
-10z"/>
<path d="M3698 3489 c-2 -5 -19 -11 -38 -11 -19 -1 -39 -7 -45 -14 -5 -7 -39
-22 -74 -33 -35 -11 -71 -30 -81 -41 -9 -11 -20 -17 -24 -13 -3 3 -6 1 -6 -6
0 -14 -68 -81 -82 -81 -9 0 -62 -50 -64 -60 -3 -21 -25 -60 -34 -60 -6 0 -9
-4 -6 -9 3 -5 -1 -14 -9 -21 -8 -7 -12 -16 -9 -22 3 -5 0 -19 -8 -31 -7 -12
-13 -31 -13 -42 0 -11 -6 -26 -15 -33 -10 -9 -10 -11 -1 -6 8 4 4 -6 -7 -22
-14 -18 -20 -40 -18 -59 1 -17 -4 -39 -13 -49 -9 -11 -10 -16 -3 -12 13 8 14
0 14 -156 0 -54 4 -98 8 -98 4 0 10 -12 13 -27 9 -46 31 -103 40 -103 5 0 6
-4 2 -9 -3 -6 15 -30 40 -55 25 -25 45 -51 45 -57 0 -21 109 -117 146 -129 28
-9 33 -15 23 -22 -10 -7 -8 -7 8 -3 22 6 70 -12 59 -22 -13 -14 63 -44 117
-48 4 0 11 -5 15 -11 10 -15 207 -16 252 -1 19 7 38 17 42 23 4 7 24 10 43 8
24 -2 35 1 35 10 0 8 10 12 25 10 16 -1 35 7 51 21 15 14 29 23 33 22 4 -1 48
40 98 91 51 50 97 92 102 92 6 0 8 7 5 15 -4 9 3 24 17 36 13 12 23 26 21 32
-2 5 2 13 8 17 6 4 12 13 13 21 2 8 7 21 12 29 5 8 10 23 10 33 0 10 5 21 11
25 13 9 14 95 0 104 -7 4 -11 63 -11 157 0 119 3 152 14 156 10 4 9 10 -7 23
-12 10 -35 49 -52 86 -17 37 -38 70 -46 73 -8 3 -14 13 -14 22 0 9 -9 23 -20
31 -11 8 -20 22 -20 30 0 15 -42 60 -56 60 -3 0 -21 12 -40 26 -19 15 -34 23
-34 19 0 -5 -11 4 -24 20 -13 15 -28 25 -34 21 -15 -9 -72 14 -72 29 0 10 -12
13 -41 12 -26 -2 -43 2 -46 10 -7 17 -249 19 -255 2z m150 -86 c4 -6 30 -10
57 -9 40 2 54 -2 70 -19 11 -11 31 -22 44 -22 15 -1 41 -19 63 -43 21 -22 43
-40 50 -40 6 0 8 -3 5 -6 -3 -4 5 -15 18 -26 14 -11 23 -24 19 -29 -3 -5 2
-12 10 -15 9 -3 14 -10 11 -14 -8 -13 6 -41 17 -34 5 3 9 0 7 -7 -4 -30 1 -60
9 -55 5 3 8 -9 7 -25 -1 -19 4 -33 12 -36 12 -5 12 -7 1 -14 -7 -5 -8 -9 -3
-9 6 0 11 -16 12 -35 1 -24 -2 -33 -9 -29 -7 5 -8 2 -2 -7 14 -23 17 -62 3
-53 -8 5 -9 3 -3 -7 14 -23 15 -81 1 -73 -9 6 -9 4 -1 -7 13 -17 12 -67 -2
-94 -13 -26 -10 -60 7 -82 9 -11 10 -14 2 -9 -13 7 -17 -4 -14 -32 1 -8 -4
-21 -11 -30 -11 -13 -11 -14 1 -7 8 5 4 -7 -9 -25 -13 -18 -17 -30 -9 -25 8 5
5 -1 -5 -13 -11 -12 -16 -22 -11 -22 4 0 -3 -9 -16 -21 -13 -11 -18 -18 -11
-14 6 3 12 1 12 -4 0 -6 -4 -11 -10 -11 -5 0 -10 -7 -10 -16 0 -8 -3 -13 -7
-11 -5 3 -14 -1 -21 -9 -7 -8 -10 -14 -7 -14 3 0 -5 -11 -19 -25 -13 -13 -30
-32 -38 -43 -19 -26 -88 -64 -123 -69 -143 -17 -235 -22 -242 -11 -2 5 -8 6
-13 3 -5 -3 -11 -1 -15 5 -3 5 -15 10 -26 10 -10 0 -19 6 -19 13 0 8 -4 7 -10
-3 -6 -10 -10 -11 -10 -2 0 6 -6 12 -13 12 -7 0 -23 9 -35 20 -12 11 -26 20
-32 20 -6 0 -8 5 -5 10 3 6 -1 10 -10 10 -8 0 -19 8 -22 18 -4 9 -9 19 -12 22
-12 10 -31 50 -31 65 0 8 -4 15 -8 15 -4 0 -9 12 -10 28 -4 42 -7 56 -16 71
-6 10 -5 12 2 7 7 -4 12 -2 12 3 0 6 -4 11 -8 11 -4 0 -9 14 -10 31 -1 18 -6
37 -9 43 -13 19 -12 40 0 48 9 6 9 8 0 8 -8 0 -13 14 -13 35 0 19 -4 35 -10
35 -15 0 -13 133 3 149 10 11 9 12 -1 6 -10 -5 -13 0 -11 21 2 16 8 35 14 43
7 11 7 13 -1 8 -6 -3 -11 0 -11 8 0 8 4 12 9 9 4 -3 8 7 8 23 1 32 23 66 36
55 4 -4 2 1 -5 11 -9 11 -10 17 -2 17 6 0 11 7 11 16 0 8 7 22 15 31 8 8 13
19 10 24 -4 5 -2 9 3 9 5 0 9 6 10 13 5 40 9 54 20 75 7 12 9 22 5 22 -16 0
33 29 50 30 10 0 15 5 12 10 -3 6 1 10 10 10 9 0 27 7 40 16 14 9 25 12 25 8
0 -5 8 2 18 16 12 17 26 25 47 25 17 0 40 5 53 11 28 14 91 12 100 -3z m409
-722 c0 -11 -5 -18 -9 -15 -4 3 -5 11 -1 19 7 21 12 19 10 -4z"/>
<path d="M3710 2209 c0 -5 5 -7 10 -4 6 3 10 8 10 11 0 2 -4 4 -10 4 -5 0 -10
-5 -10 -11z"/>
<path d="M7880 3490 c0 -5 -26 -10 -57 -10 -35 -1 -66 -6 -77 -15 -10 -8 -22
-12 -26 -10 -5 3 -10 -1 -13 -9 -3 -8 -16 -12 -31 -11 -17 2 -26 -2 -26 -11 0
-8 -3 -14 -7 -14 -19 0 -112 -97 -115 -120 -3 -26 -19 -50 -29 -44 -7 4 -8 -3
-12 -84 -3 -45 0 -68 10 -78 8 -7 11 -18 8 -24 -3 -6 0 -13 8 -16 9 -3 14 -16
12 -31 -1 -14 4 -27 11 -30 8 -3 12 -9 9 -13 -3 -5 1 -15 9 -23 8 -8 12 -17 9
-21 -4 -3 0 -6 8 -6 8 0 21 -9 29 -20 8 -11 22 -20 31 -20 9 0 19 -6 22 -14 4
-9 15 -13 30 -10 16 2 27 -1 31 -12 3 -8 11 -12 16 -9 6 4 19 -2 29 -13 9 -12
24 -22 31 -24 8 -2 21 -9 28 -16 8 -7 17 -10 22 -7 4 3 11 -2 14 -11 3 -8 10
-13 15 -10 5 4 16 -1 24 -9 9 -8 20 -15 26 -15 16 0 53 -22 72 -42 9 -10 24
-18 33 -18 9 0 16 -4 16 -10 0 -5 9 -10 20 -10 11 0 23 -6 26 -14 3 -8 11 -13
18 -10 13 5 86 -60 86 -77 0 -5 5 -7 10 -4 6 4 10 -8 10 -29 0 -20 5 -36 10
-36 6 0 10 -29 10 -68 0 -56 -3 -70 -20 -82 -11 -8 -20 -20 -20 -28 0 -32 -78
-84 -130 -86 -17 -1 -34 -6 -38 -11 -11 -16 -221 -12 -231 4 -5 7 -13 11 -19
7 -5 -3 -18 6 -28 19 -10 14 -25 25 -32 25 -18 0 -122 106 -122 125 0 8 -4 15
-10 15 -5 0 -10 22 -10 49 0 30 -5 51 -12 53 -8 3 -11 22 -9 54 l2 50 -35 2
c-30 2 -34 0 -31 -17 2 -11 -2 -22 -9 -24 -9 -4 -12 -59 -11 -218 l0 -213 34
-4 c18 -2 31 1 27 6 -3 5 1 18 9 28 8 10 15 26 15 34 0 21 40 24 40 3 0 -9 6
-13 15 -9 9 3 18 -1 22 -10 3 -8 11 -13 19 -10 7 3 18 -2 24 -9 7 -8 24 -13
41 -11 16 2 34 -2 39 -9 7 -9 34 -13 77 -12 45 1 67 -2 70 -11 6 -14 74 -13
85 1 3 6 35 10 71 9 44 0 69 4 77 13 6 8 19 11 27 8 11 -4 14 -2 9 5 -4 7 -2
13 3 13 6 1 16 2 21 3 6 0 14 6 18 12 4 6 15 10 25 8 9 -1 17 4 17 12 0 9 4
13 9 9 5 -3 17 2 25 11 9 8 16 13 16 10 0 -14 52 49 53 65 1 11 4 19 8 19 4 0
13 15 20 33 18 42 20 267 3 274 -7 2 -11 12 -10 21 2 9 -12 29 -30 43 -18 14
-31 29 -27 33 3 3 -1 6 -10 6 -10 0 -17 7 -17 16 0 8 -4 13 -8 10 -5 -3 -15 6
-22 20 -8 13 -19 23 -26 20 -6 -2 -22 7 -35 20 -16 17 -31 24 -46 21 -13 -2
-24 2 -27 9 -3 8 -15 14 -26 14 -12 0 -18 5 -15 10 4 6 -5 10 -20 10 -14 0
-24 4 -21 8 3 5 -1 9 -9 9 -8 0 -12 -4 -9 -9 3 -4 0 -8 -5 -8 -6 0 -11 5 -11
11 0 6 -7 9 -15 5 -10 -3 -15 1 -15 12 0 15 -2 15 -10 2 -6 -10 -10 -11 -10
-2 0 6 -7 12 -16 12 -8 0 -12 5 -9 10 3 6 -3 10 -15 10 -12 0 -18 5 -15 10 3
6 -1 10 -10 10 -10 0 -14 -5 -9 -12 6 -10 4 -10 -7 0 -7 6 -23 12 -36 12 -13
0 -23 5 -23 10 0 6 -9 10 -20 10 -11 0 -20 5 -20 10 0 6 -7 10 -15 10 -8 0
-15 7 -15 16 0 8 -4 13 -9 10 -5 -3 -12 1 -15 10 -4 10 -2 13 7 9 6 -4 5 0 -3
7 -25 23 -41 56 -29 63 7 5 6 11 -1 20 -16 20 -10 135 9 159 38 47 85 86 99
81 11 -4 12 -2 4 7 -8 10 1 13 45 13 46 0 57 3 63 19 8 23 56 30 64 9 3 -8 15
-12 30 -9 15 3 27 -1 30 -9 3 -8 16 -12 31 -10 16 1 29 -3 32 -12 3 -8 12 -12
20 -9 7 3 16 -1 19 -9 4 -8 10 -13 14 -10 11 7 70 -50 70 -67 0 -7 9 -20 20
-28 11 -8 20 -22 20 -32 0 -10 5 -18 10 -18 6 0 10 -28 10 -63 l0 -63 31 0
c19 1 34 8 42 21 15 26 17 146 3 164 -14 18 -15 54 -2 63 16 11 11 94 -6 112
-24 23 -68 17 -68 -9 0 -18 -6 -21 -40 -21 -24 0 -40 4 -40 11 0 7 -12 11 -27
10 -21 -1 -29 4 -33 19 -5 17 -15 21 -47 23 -23 1 -59 7 -80 12 -48 14 -143
14 -143 1z"/>
<path d="M1820 3454 c0 -14 4 -23 10 -19 6 3 10 0 10 -8 0 -8 9 -13 23 -12 12
1 30 -5 41 -14 10 -9 21 -14 25 -11 3 3 7 -10 9 -29 2 -19 10 -45 19 -57 13
-20 13 -25 1 -29 -21 -8 -22 -1002 -1 -1024 26 -25 -6 -37 -96 -35 -87 2 -91
-1 -83 -57 3 -24 9 -27 40 -27 19 0 41 5 47 11 14 15 234 15 243 0 4 -5 45
-10 91 -11 91 -1 114 10 117 55 1 27 -13 41 -21 20 -7 -17 -73 -16 -85 2 -4 8
-15 11 -24 8 -10 -4 -16 -1 -16 8 0 8 -4 15 -10 15 -15 0 -12 57 3 63 9 4 8 8
-3 17 -11 9 -12 13 -2 17 15 6 18 233 2 233 -5 0 -10 23 -10 50 0 28 5 50 10
50 14 0 12 37 -2 44 -10 5 -10 7 0 12 6 3 12 11 12 17 0 8 26 12 85 11 75 0
88 -3 116 -27 17 -14 28 -30 24 -36 -3 -6 1 -14 10 -17 10 -4 15 -14 12 -26
-3 -10 1 -25 9 -32 8 -8 14 -22 14 -30 0 -9 5 -16 10 -16 6 0 10 -12 10 -26 0
-14 4 -23 10 -19 6 3 10 -2 10 -13 0 -10 9 -27 20 -37 11 -10 20 -24 20 -31 0
-7 16 -29 35 -49 20 -20 33 -40 30 -44 -3 -5 2 -12 11 -15 8 -3 13 -10 10 -15
-3 -5 1 -14 9 -21 7 -6 12 -17 9 -24 -3 -8 2 -16 11 -20 9 -3 14 -10 11 -15
-4 -5 1 -16 9 -25 9 -8 16 -18 15 -21 -1 -22 2 -26 15 -21 9 3 18 -1 22 -10 4
-10 15 -13 34 -10 20 3 29 0 29 -10 0 -11 24 -13 125 -11 118 1 125 3 136 25
20 36 -8 57 -78 57 -47 0 -57 3 -59 19 -1 10 -8 22 -15 26 -6 5 -9 15 -6 24 4
10 1 16 -7 16 -8 0 -19 14 -26 30 -7 17 -21 35 -31 41 -11 5 -19 19 -19 29 0
11 -4 20 -10 20 -5 0 -10 12 -10 26 0 14 -4 23 -10 19 -5 -3 -10 1 -10 10 0 9
-18 40 -40 70 -22 30 -40 58 -40 63 0 5 -7 15 -15 22 -8 7 -13 16 -10 20 3 4
-2 13 -10 20 -8 7 -15 18 -15 26 0 7 -8 21 -18 31 -15 15 -19 37 -13 70 0 3
10 -4 20 -16 18 -21 20 -21 33 -4 7 10 20 19 28 21 8 2 48 38 89 80 74 75 74
76 72 125 -1 29 3 53 9 57 17 10 19 230 3 230 -7 0 -13 3 -13 8 0 4 -13 13
-30 20 -16 8 -30 20 -30 28 0 9 -4 13 -9 10 -5 -3 -11 1 -15 9 -3 8 -12 12
-19 9 -8 -3 -17 2 -20 10 -4 9 -13 13 -22 10 -10 -4 -15 0 -15 11 0 9 -4 14
-8 11 -16 -10 -108 45 -96 57 4 3 -124 6 -283 5 -202 0 -292 -3 -302 -11 -11
-9 -15 -9 -18 1 -3 8 -27 12 -74 12 -67 0 -69 -1 -69 -26z m583 -51 c7 -6 25
-9 40 -8 19 1 34 -6 47 -22 11 -14 23 -22 28 -19 5 3 18 -4 28 -15 11 -12 29
-25 42 -30 13 -5 21 -13 18 -18 -3 -5 1 -14 10 -21 8 -7 13 -19 10 -26 -3 -7
0 -14 7 -17 8 -2 12 -40 13 -125 0 -99 -2 -122 -14 -122 -8 0 -12 -6 -9 -14 6
-14 -44 -66 -63 -66 -5 0 -10 -4 -10 -10 0 -5 -7 -10 -16 -10 -8 0 -13 -4 -9
-9 7 -12 -60 -34 -99 -33 -17 0 -37 -4 -44 -11 -19 -15 -103 -16 -109 0 -4 9
-11 8 -29 -3 -22 -15 -24 -15 -30 0 -3 9 -14 15 -23 14 -11 -2 -17 6 -19 30
-2 17 -7 32 -13 32 -5 0 -9 14 -9 30 0 17 4 30 10 30 6 0 11 84 12 217 l3 217
59 1 c33 1 61 6 63 12 4 12 89 9 106 -4z"/>
<path d="M5143 3464 c-7 -7 -22 -11 -33 -9 -11 2 -20 0 -20 -5 0 -4 -20 -16
-44 -25 -26 -10 -46 -25 -49 -36 -4 -15 -12 -19 -31 -15 -14 3 -26 0 -26 -5 0
-5 -19 -28 -42 -50 -24 -23 -42 -46 -40 -51 3 -10 -66 -78 -80 -78 -4 0 -5 -7
-1 -16 3 -9 0 -20 -7 -24 -8 -5 -15 -16 -16 -26 -2 -9 -8 -20 -15 -24 -6 -4
-9 -12 -6 -16 2 -5 0 -20 -6 -34 -6 -14 -11 -67 -12 -118 -1 -60 -6 -96 -14
-101 -8 -5 -10 -35 -8 -99 3 -75 9 -101 30 -143 15 -28 27 -57 27 -65 0 -8 6
-17 14 -20 8 -3 13 -14 11 -25 -2 -10 2 -25 8 -32 7 -7 13 -18 15 -25 2 -12
192 -207 202 -207 3 -1 14 -6 25 -12 11 -6 28 -9 38 -7 10 1 21 -4 24 -12 3
-9 14 -12 30 -10 18 4 26 -1 33 -18 6 -17 15 -23 34 -21 14 2 26 0 26 -5 0 -4
10 -6 23 -3 15 3 18 2 9 -4 -8 -6 39 -10 123 -10 74 0 135 4 135 8 0 5 7 9 16
9 8 0 22 6 30 14 8 8 23 13 33 11 11 -2 22 3 25 11 4 10 13 13 26 9 12 -4 26
0 35 9 8 8 24 13 36 11 11 -2 22 2 26 10 3 8 9 12 14 9 5 -3 9 2 9 10 0 9 8
14 20 13 15 -1 20 -8 20 -30 0 -31 15 -50 43 -55 12 -2 17 4 17 23 0 15 4 24
10 20 11 -7 11 -3 11 175 0 155 -2 200 -8 178 -4 -17 -47 -33 -64 -23 -5 4 -9
3 -8 -2 4 -22 -2 -43 -11 -38 -5 3 -10 -2 -10 -12 0 -10 -7 -26 -15 -36 -7
-11 -11 -25 -8 -33 3 -7 -2 -21 -11 -30 -9 -8 -14 -20 -11 -25 4 -5 -1 -9 -9
-9 -9 0 -39 -18 -68 -40 -29 -22 -65 -46 -80 -53 -16 -6 -28 -15 -28 -18 0 -5
-8 -7 -49 -11 -11 -1 -17 -6 -15 -10 3 -4 -7 -8 -23 -9 -124 -4 -163 -3 -163
4 0 4 -6 7 -12 6 -26 -5 -84 14 -138 44 -60 34 -82 55 -75 75 2 6 0 12 -6 12
-17 0 -36 24 -33 43 2 14 -1 15 -10 8 -10 -8 -12 -4 -11 20 1 22 -2 29 -12 25
-8 -3 -12 -2 -10 2 3 4 0 18 -6 32 -14 34 -17 51 -8 46 4 -3 7 6 7 19 0 13 -4
21 -10 18 -5 -4 -7 0 -3 9 3 9 -1 25 -8 36 -11 15 -14 67 -12 250 1 136 6 228
11 225 5 -4 6 -1 2 6 -4 6 0 23 9 38 9 14 12 22 6 19 -6 -4 -11 -3 -11 2 0 6
7 13 16 16 9 4 14 9 11 12 -3 4 1 13 9 21 8 9 13 22 10 29 -3 8 1 14 10 14 8
0 13 4 10 8 -3 5 4 14 14 22 10 8 16 18 13 23 -3 6 -2 7 4 4 6 -4 25 7 43 23
19 17 37 30 41 30 5 0 19 11 32 24 14 14 28 22 31 19 3 -4 6 -1 6 6 0 7 4 10
9 6 5 -3 12 -1 16 5 3 5 11 10 16 10 6 0 7 -6 3 -12 -5 -9 -2 -9 9 1 24 19
145 21 152 2 4 -10 8 -11 19 -2 11 9 15 9 19 -1 4 -10 6 -10 6 0 1 6 9 12 19
12 13 0 14 -2 3 -9 -9 -6 -3 -8 20 -6 42 3 68 -11 130 -67 16 -15 29 -32 29
-37 0 -6 7 -8 16 -4 10 4 17 -1 21 -15 3 -11 11 -23 19 -26 8 -3 14 -13 14
-22 0 -17 58 -132 75 -149 17 -16 35 -16 51 0 15 14 16 63 10 342 l-1 42 -38
-2 c-33 -2 -39 -6 -45 -32 -6 -20 -15 -31 -30 -33 -12 -2 -22 1 -22 6 0 5 -21
17 -47 27 -27 9 -62 25 -79 35 -27 15 -59 18 -240 18 -161 0 -212 -3 -221 -14z"/>
<path d="M6020 3466 c0 -7 -10 -12 -21 -12 -16 1 -22 -6 -25 -26 -3 -31 -6
-30 91 -32 l70 -1 3 -129 c1 -71 7 -135 12 -141 14 -16 14 -369 1 -373 -14 -5
-15 -238 -1 -247 6 -3 10 -15 10 -26 0 -11 5 -17 10 -14 6 4 10 -8 10 -29 0
-19 5 -36 12 -38 7 -3 12 -18 13 -34 0 -16 6 -28 13 -27 6 2 9 -4 5 -13 -6
-16 44 -72 59 -67 5 2 8 -2 8 -7 0 -6 9 -10 20 -10 11 0 20 -4 20 -10 0 -5 8
-10 18 -10 9 0 22 -10 27 -22 6 -13 19 -23 30 -23 12 -1 19 -7 17 -15 -2 -10
0 -11 11 -2 10 9 16 9 25 0 9 -9 12 -9 12 0 0 8 7 9 23 3 12 -4 48 -7 80 -7
31 1 57 -3 57 -7 0 -5 4 -5 10 -2 5 3 55 7 110 9 55 2 104 6 107 10 3 3 12 1
20 -5 9 -8 13 -8 13 -1 0 6 6 9 13 6 15 -5 107 51 107 66 0 6 8 10 18 8 11 -2
18 4 20 20 2 12 8 22 13 22 5 0 9 9 9 20 0 11 5 20 10 20 6 0 10 8 10 18 0 9
11 26 25 36 13 10 22 22 19 27 -3 5 1 15 8 23 9 9 13 33 11 72 -3 67 5 127 15
120 12 -7 8 584 -3 592 -14 9 -15 135 -1 144 6 4 11 15 11 25 0 16 10 18 73
18 54 -1 72 3 72 13 0 7 5 10 10 7 6 -4 10 8 10 30 0 34 -2 36 -27 33 -16 -1
-31 -7 -35 -13 -5 -6 -11 -6 -16 2 -9 14 -111 14 -130 0 -20 -15 -122 -15
-122 0 0 16 -12 17 -29 1 -11 -10 -13 -10 -7 0 9 15 -10 16 -20 1 -4 -8 -9 -7
-15 2 -7 11 -9 10 -9 -4 0 -14 -4 -16 -19 -8 -15 8 -20 7 -24 -8 -7 -27 6 -41
31 -36 13 2 25 -2 28 -9 4 -10 23 -12 67 -10 l62 3 -3 -74 c-3 -51 -1 -75 7
-75 8 0 11 -79 11 -270 0 -173 -4 -270 -10 -270 -6 0 -10 -65 -10 -175 0 -153
-2 -175 -16 -175 -8 0 -33 -18 -55 -40 -22 -22 -44 -40 -50 -40 -5 0 -25 -16
-45 -35 -26 -27 -40 -34 -58 -29 -14 3 -29 0 -38 -10 -9 -8 -19 -12 -23 -8 -3
4 -12 0 -18 -9 -14 -18 -78 -21 -89 -5 -4 6 -32 11 -63 12 -34 0 -60 6 -65 13
-4 7 -10 12 -14 12 -21 -3 -28 1 -23 13 5 13 -25 46 -44 46 -16 0 -59 47 -59
65 0 8 -4 15 -10 15 -5 0 -10 14 -10 30 0 17 -4 30 -10 30 -6 0 -10 26 -10 58
0 32 -5 63 -10 68 -11 11 -16 826 -6 843 3 4 39 7 80 6 76 -2 83 1 77 38 0 4
6 7 15 7 12 0 10 5 -9 20 -28 22 -82 27 -90 7 -6 -15 -106 -15 -115 0 -10 16
-292 15 -292 -1z"/>
<path d="M7162 2560 c0 -14 2 -19 5 -12 2 6 2 18 0 25 -3 6 -5 1 -5 -13z"/>
<path d="M5810 2546 c0 -9 7 -12 20 -9 11 3 20 9 20 14 0 5 -9 9 -20 9 -11 0
-20 -6 -20 -14z"/>
<path d="M4470 1850 c0 -5 5 -10 11 -10 5 0 7 5 4 10 -3 6 -8 10 -11 10 -2 0
-4 -4 -4 -10z"/>
</g>
</svg>
